<?xml version="1.0" standalone="no"?>
<!DOCTYPE svg PUBLIC "-//W3C//DTD SVG 20010904//EN"
 "http://www.w3.org/TR/2001/REC-SVG-20010904/DTD/svg10.dtd">
<svg version="1.0" xmlns="http://www.w3.org/2000/svg"
 width="866.000000pt" height="650.000000pt" viewBox="0 0 866.000000 650.000000"
 preserveAspectRatio="xMidYMid meet">

<g transform="translate(0.000000,650.000000) scale(0.100000,-0.100000)"
fill="#000000" stroke="none">
<path d="M3954 6009 c-329 -69 -727 -294 -918 -519 -28 -32 -86 -91 -128 -130
-88 -81 -138 -166 -138 -234 0 -31 -9 -53 -35 -90 -37 -52 -90 -171 -111 -251
-20 -74 -17 -253 6 -364 l19 -94 -35 -45 c-84 -110 -84 -265 1 -377 33 -43 34
-47 21 -73 -14 -27 -20 -67 -18 -110 1 -13 25 -47 52 -76 36 -38 55 -68 66
-107 17 -57 80 -182 144 -284 32 -50 39 -72 44 -133 3 -40 12 -88 20 -105 26
-61 84 -97 156 -97 38 0 40 -2 50 -42 25 -95 92 -285 128 -362 l39 -82 -74
-94 c-41 -52 -108 -142 -149 -199 l-74 -105 -247 -144 c-137 -79 -297 -171
-357 -204 l-108 -61 6 -36 c7 -48 76 -146 194 -277 395 -439 865 -707 1552
-885 75 -20 152 -32 220 -36 97 -5 116 -2 245 30 320 79 848 302 1112 468 52
32 127 83 166 112 258 191 597 521 597 582 0 32 -105 110 -560 418 -47 31 -92
67 -101 80 -9 12 -47 78 -84 147 -37 69 -92 162 -122 207 l-54 82 31 93 c26
76 68 239 96 367 l5 24 27 -26 c36 -33 65 -41 107 -27 49 16 79 57 110 150 31
94 77 165 176 275 251 279 307 468 189 640 -41 59 -110 207 -143 305 -22 68
-24 86 -19 192 8 195 -29 354 -130 551 -43 85 -67 117 -140 191 l-88 89 0 57
c0 77 -45 165 -124 246 -78 79 -130 98 -334 124 -198 26 -207 27 -326 57 -54
13 -128 39 -165 57 -101 51 -256 106 -356 127 -121 25 -317 25 -441 -2z m405
-34 c163 -31 326 -99 563 -233 260 -147 440 -221 580 -240 87 -11 95 -6 69 45
-41 81 -116 123 -246 137 -48 5 -46 4 33 -24 46 -16 97 -38 115 -49 39 -24 84
-81 64 -81 -30 0 -177 44 -271 81 -97 39 -311 147 -304 154 2 2 21 0 43 -5 22
-5 105 -17 185 -25 158 -18 255 -37 299 -59 68 -36 176 -188 169 -238 -4 -33
-96 -84 -186 -104 -86 -19 -243 -15 -344 10 -32 7 -55 10 -52 5 2 -4 40 -16
84 -26 44 -10 80 -23 80 -29 0 -13 32 -24 72 -24 34 0 61 -27 55 -56 -3 -15 0
-21 10 -17 7 3 11 9 8 13 -2 4 7 8 20 8 44 0 10 -24 -52 -37 -66 -13 -156 -15
-149 -3 3 5 -18 5 -46 1 -48 -8 -89 -4 -113 10 -5 3 -23 4 -40 3 -23 -2 -27
-1 -15 7 8 6 11 11 5 12 -5 1 4 5 20 9 23 6 12 8 -43 9 -53 1 -71 -2 -66 -11
4 -6 3 -9 -2 -6 -5 3 -18 8 -29 12 -16 6 -17 9 -5 17 10 6 4 7 -19 2 -25 -4
-32 -3 -27 6 4 6 4 11 -1 10 -4 -1 -11 0 -15 1 -5 1 -12 4 -18 5 -5 1 -12 4
-15 5 -3 1 -8 3 -12 4 -17 4 -81 40 -123 71 -64 46 -78 52 -55 26 31 -35 173
-126 242 -155 122 -51 321 -91 428 -85 59 3 114 -2 90 -8 -11 -3 -23 -10 -26
-15 -17 -27 -380 -44 -479 -23 -14 3 -46 10 -72 15 -27 5 -61 16 -77 25 -33
16 -55 20 -47 7 3 -5 -1 -9 -8 -9 -8 0 -12 6 -9 13 3 8 -16 23 -49 40 -29 14
-74 42 -100 61 -27 19 -48 32 -48 30 0 -3 -13 7 -28 21 -15 15 -48 43 -72 62
-24 19 -67 55 -94 80 -41 37 -36 28 32 -51 127 -148 235 -233 386 -305 72 -34
246 -84 295 -84 14 0 33 -5 41 -11 11 -7 -40 -9 -170 -5 -147 3 -202 9 -265
26 -102 27 -261 104 -345 167 -36 26 -78 56 -95 67 -16 10 -40 30 -53 45 -22
25 -23 25 -11 2 6 -13 47 -61 91 -106 81 -85 183 -162 276 -209 28 -14 52 -30
52 -34 0 -5 -12 -13 -27 -20 -25 -10 -25 -11 -3 -5 14 4 34 7 45 8 28 2 85
-16 79 -26 -2 -4 4 -12 13 -18 17 -10 17 -10 1 -11 -10 0 -18 4 -18 9 0 5 -33
9 -74 10 -41 1 -85 5 -98 10 -19 8 -20 10 -4 10 11 1 16 4 13 8 -4 3 -3 11 2
17 6 8 -3 11 -31 12 -36 0 -38 -1 -21 -14 16 -12 15 -13 -12 -7 -47 9 -108 26
-134 37 -21 8 -22 11 -10 19 10 8 8 9 -8 4 -17 -5 -23 -2 -23 9 0 10 -9 14
-30 13 -16 -1 -29 2 -29 7 1 16 -29 26 -53 18 -34 -12 -58 -4 -59 21 0 12 -3
16 -6 10 -2 -7 -9 -13 -14 -13 -5 0 -8 6 -6 13 1 6 -4 11 -12 9 -20 -4 -81 46
-75 62 4 11 0 13 -17 9 -15 -4 -20 -3 -15 5 4 8 0 12 -11 12 -27 0 -63 28 -63
49 0 27 -23 44 -38 29 -9 -9 -16 -8 -30 5 -14 14 -14 19 -4 26 11 7 11 9 -2
14 -9 4 -16 2 -16 -3 0 -6 -5 -10 -11 -10 -5 0 -8 4 -5 9 3 4 -7 19 -22 32
l-27 24 20 -24 20 -24 -30 16 c-16 8 -39 23 -50 32 -11 9 -14 13 -6 9 9 -4 12
-3 7 4 -4 6 -13 9 -21 6 -9 -4 -18 1 -21 11 -4 9 -13 14 -20 11 -8 -3 -14 -1
-14 5 0 6 -4 7 -10 4 -5 -3 -10 -2 -10 3 0 5 -9 12 -20 15 -11 3 -18 1 -14 -4
9 -15 -8 -10 -29 9 -11 9 -22 13 -23 7 -3 -6 -46 -9 -106 -9 -93 2 -97 1 -38
-6 164 -19 257 -61 440 -200 182 -138 307 -219 424 -277 132 -64 208 -87 346
-104 91 -11 100 -14 70 -21 -84 -19 -215 -21 -300 -4 -211 43 -376 117 -623
279 -140 92 -217 137 -234 137 -4 0 13 -13 38 -28 24 -16 118 -84 209 -151
168 -125 278 -187 413 -231 37 -12 67 -26 67 -31 0 -11 -14 -12 -24 -1 -4 4
-24 7 -44 8 -21 0 -75 5 -122 12 -47 6 -130 16 -185 22 -130 14 -293 55 -372
92 -123 58 -245 160 -294 246 -36 61 -46 67 -24 15 58 -140 175 -267 305 -331
115 -56 157 -67 420 -112 44 -8 32 -9 -65 -5 -225 8 -384 58 -577 182 -40 25
-75 49 -78 53 -12 14 -68 49 -72 45 -3 -3 -17 13 -32 35 -33 51 -45 53 -15 3
96 -160 240 -284 377 -324 23 -7 40 -14 38 -16 -6 -7 -170 45 -234 73 -88 39
-216 154 -228 204 -3 14 -18 50 -32 80 -15 30 -28 70 -30 88 -5 54 40 133 116
203 89 81 285 212 397 265 105 49 267 100 345 109 101 12 265 -27 365 -86 34
-20 42 -23 25 -8 -36 31 -167 95 -235 114 -45 13 -82 16 -154 12 -123 -6 -227
-39 -391 -123 l-125 -63 45 41 c99 90 311 216 494 293 232 97 462 128 665 90z
m1458 -804 c111 -146 197 -377 209 -561 l4 -75 -20 71 c-29 104 -67 205 -100
270 -37 69 -39 50 -5 -41 17 -44 27 -97 31 -153 11 -166 11 -212 0 -212 -6 0
-4 -4 4 -10 8 -5 11 -12 8 -16 -14 -13 -39 7 -70 56 -17 28 -32 49 -34 47 -2
-1 4 -29 12 -61 8 -32 13 -63 12 -68 -4 -11 -53 60 -89 128 l-20 39 5 -44 c13
-124 144 -292 282 -364 40 -20 79 -48 88 -62 21 -32 6 -32 -42 0 -34 22 -121
55 -147 55 -5 0 14 -14 44 -30 144 -79 232 -175 245 -266 3 -22 3 -32 0 -24
-14 33 -59 70 -105 86 -27 10 -49 22 -49 27 0 4 -4 6 -9 2 -13 -7 -132 38
-211 82 -79 43 -139 89 -203 157 -43 46 -46 47 -30 17 28 -53 109 -136 173
-180 45 -29 55 -41 43 -45 -28 -11 -124 55 -223 155 -108 110 -120 135 -120
268 l0 78 83 -82 c65 -66 99 -91 168 -124 95 -46 137 -55 72 -15 -24 14 -43
29 -43 35 0 5 -5 8 -12 6 -7 -1 -13 7 -14 18 -1 11 -23 66 -48 123 -25 57 -48
118 -52 137 l-6 34 48 -15 c59 -18 65 -18 58 1 -3 8 -60 49 -125 91 -66 42
-118 78 -116 80 1 2 21 -3 42 -11 22 -7 41 -12 43 -11 1 2 -9 23 -22 47 -24
42 -38 93 -50 182 -7 55 12 47 59 -24 53 -81 68 -91 45 -32 -18 48 -45 191
-38 198 2 2 34 -53 71 -123 78 -147 79 -119 2 45 -53 111 -53 112 -33 130 11
10 27 31 35 47 l15 28 48 -68 c27 -37 46 -72 43 -78 -3 -6 -3 -8 2 -4 5 5 19
-8 33 -28 13 -19 26 -33 29 -31 7 8 -25 65 -93 163 -35 51 -60 94 -57 98 7 6
68 -61 130 -143z m-2057 28 c0 -6 -4 -7 -10 -4 -5 3 -10 11 -10 16 0 6 5 7 10
4 6 -3 10 -11 10 -16z m1215 11 c-3 -5 -10 -10 -16 -10 -5 0 -9 5 -9 10 0 6 7
10 16 10 8 0 12 -4 9 -10z m-2197 -210 c-1 -22 -5 -40 -10 -40 -9 0 12 -60 51
-145 17 -37 31 -73 31 -81 0 -8 4 -13 8 -10 4 2 38 -19 75 -49 l66 -53 -35
-31 c-19 -17 -39 -31 -44 -31 -4 0 -15 -3 -24 -6 -13 -5 -16 1 -16 26 l0 32
-26 -32 c-15 -17 -28 -29 -30 -27 -3 2 3 34 11 72 22 93 14 100 -20 19 -15
-38 -32 -73 -37 -78 -4 -6 -9 50 -9 125 l-1 134 -23 -90 c-13 -49 -24 -101
-24 -115 -1 -18 -4 -21 -10 -11 -7 11 -10 10 -15 -5 -3 -10 -4 24 -2 76 2 56
0 86 -5 73 -13 -35 -29 -169 -30 -256 l-1 -82 -10 55 c-5 30 -7 111 -5 180 4
99 10 140 30 195 35 102 85 195 104 195 2 0 3 -18 1 -40z m213 -37 c13 -16 12
-17 -3 -4 -17 13 -22 21 -14 21 2 0 10 -8 17 -17z m1196 -29 c-3 -3 -12 -4
-19 -1 -8 3 -5 6 6 6 11 1 17 -2 13 -5z m1167 -66 c23 -115 28 -171 25 -298
-7 -284 -2 -346 31 -458 17 -57 43 -131 59 -165 15 -34 33 -75 40 -91 7 -17
11 -70 11 -125 l-2 -96 -52 -80 c-52 -79 -199 -246 -264 -300 -53 -45 -29 -40
38 7 35 23 72 50 84 58 l21 14 -21 -24 c-20 -24 -88 -138 -113 -190 l-12 -25
21 25 c12 14 62 67 111 118 49 51 89 99 89 107 0 8 4 15 9 15 5 0 12 8 16 19
3 10 14 29 25 41 10 12 21 27 23 33 30 84 -6 -420 -40 -561 -31 -129 -154
-403 -233 -518 -27 -39 -61 -68 -123 -107 -28 -18 -28 -18 7 30 69 98 119 221
145 358 8 44 8 48 -5 31 -8 -11 -14 -31 -14 -44 0 -32 -59 -156 -109 -230 -86
-127 -209 -212 -334 -230 l-58 -9 39 41 c38 40 86 107 112 155 7 13 -20 -8
-59 -47 -185 -185 -341 -250 -576 -239 -180 8 -287 61 -443 219 -45 45 -82 76
-82 69 0 -21 48 -101 84 -140 l31 -34 -30 7 c-47 11 -131 52 -170 83 -81 63
-160 232 -221 468 -21 83 -40 139 -42 127 -6 -38 17 -185 44 -289 54 -209 -4
-93 -106 212 -73 215 -93 296 -114 448 -16 119 -12 121 83 41 84 -71 88 -74
139 -107 33 -21 42 -24 42 -12 0 10 5 13 12 9 21 -13 -43 87 -135 211 -49 66
-105 140 -123 165 -19 25 -38 50 -44 57 -22 26 -50 116 -50 162 0 59 9 88 63
211 9 19 36 98 61 175 62 190 92 275 103 286 4 4 55 15 113 22 l105 15 -107 1
c-86 1 -108 4 -108 15 0 15 27 20 170 31 41 4 170 20 285 36 116 15 291 38
390 49 182 22 382 59 556 104 224 59 361 98 459 130 126 42 138 43 144 14z
m-719 2 c-27 -12 -35 -12 -35 0 0 6 12 10 28 9 24 0 25 -1 7 -9z m-472 -117
c-7 -2 -19 -2 -25 0 -7 3 -2 5 12 5 14 0 19 -2 13 -5z m-786 -79 c-3 -3 -12
-4 -19 -1 -8 3 -5 6 6 6 11 1 17 -2 13 -5z m2241 -23 c7 -4 17 -34 22 -67 13
-85 26 -124 60 -177 37 -59 24 -61 -22 -4 -38 45 -69 108 -87 172 -20 74 -11
100 27 76z m-2552 -95 c-3 -30 -9 -63 -12 -73 -3 -10 15 14 41 52 38 57 46 64
42 40 -25 -144 -116 -250 -317 -371 -52 -31 -113 -71 -136 -90 -41 -34 -43
-34 -49 -14 -4 12 -4 32 -1 45 7 29 -9 42 -23 18 -10 -17 -10 -17 -11 0 0 25
27 86 55 123 14 18 71 68 127 112 57 44 131 109 166 144 47 48 70 64 94 66
l31 3 -7 -55z m2971 -58 c-3 -7 -5 -2 -5 12 0 14 2 19 5 13 2 -7 2 -19 0 -25z
m-2962 -325 c-44 -119 -91 -180 -207 -267 -56 -43 -114 -80 -130 -83 -37 -7
-72 -63 -66 -105 5 -28 4 -29 -9 -13 -7 11 -13 35 -13 55 0 70 77 150 243 252
94 58 126 88 55 52 l-33 -17 25 28 c27 31 25 30 -65 -10 -52 -24 -58 -24 -42
-7 10 11 42 38 70 61 29 22 84 65 122 96 39 30 72 50 74 44 2 -6 -9 -44 -24
-86z m-80 -370 c19 -91 29 -121 52 -167 l25 -51 -43 49 c-24 27 -52 63 -61 80
-17 31 -24 97 -11 109 15 15 33 5 38 -20z m2641 -36 c3 -17 13 -46 22 -63 13
-29 12 -48 -13 -215 -15 -101 -31 -195 -35 -209 -6 -24 -20 259 -20 417 0 101
29 146 46 70z m101 -45 c9 -6 6 -20 -12 -57 -21 -42 -24 -46 -25 -24 0 36 11
89 19 89 3 0 11 -4 18 -8z m285 -64 c-5 -122 -63 -286 -138 -389 -18 -25 -48
-83 -65 -128 -38 -100 -70 -141 -109 -141 -58 0 -90 84 -73 191 8 52 9 54 46
60 43 7 90 47 118 101 24 47 24 51 -2 38 -29 -16 -33 -8 -9 18 11 12 20 31 21
44 0 22 1 22 9 3 8 -18 9 -17 9 7 1 14 -8 48 -19 74 -21 48 -20 62 7 127 24
55 37 47 29 -18 -9 -75 10 -71 26 5 6 33 15 60 19 60 4 0 15 -21 24 -47 9 -27
21 -55 25 -64 5 -10 0 -40 -14 -80 -27 -77 -44 -110 -108 -211 -26 -43 -48
-81 -48 -84 0 -18 40 30 92 111 83 128 120 222 126 318 4 65 7 77 21 75 13 -3
16 -16 13 -70z m-3220 -40 c5 -50 20 -94 74 -210 37 -81 70 -146 72 -144 2 2
-22 68 -52 146 -53 135 -62 176 -47 228 l6 23 35 -23 c19 -13 49 -42 67 -66
l32 -43 -19 -32 c-11 -18 -20 -47 -20 -65 0 -35 37 -116 76 -168 17 -23 20
-34 12 -42 -18 -18 -3 -25 21 -11 11 7 23 11 26 8 5 -6 24 -112 39 -213 l5
-39 -46 7 c-77 10 -113 61 -113 158 0 48 -6 63 -64 156 -35 56 -76 133 -91
170 -40 99 -54 222 -25 222 4 0 10 -28 12 -62z m2895 -30 c-3 -8 -6 -5 -6 6
-1 11 2 17 5 13 3 -3 4 -12 1 -19z m21 -81 c30 -70 28 -90 -14 -137 -43 -47
-55 -50 -49 -12 2 15 9 66 16 115 7 48 15 87 18 87 3 0 16 -24 29 -53z m-2648
-122 c6 -60 14 -119 17 -130 11 -39 -46 25 -77 89 -41 81 -39 125 8 179 15 17
16 17 28 -5 6 -13 17 -72 24 -133z m2690 -38 c0 -2 -12 -14 -27 -28 l-28 -24
24 28 c23 25 31 32 31 24z m-148 -1120 c152 -277 153 -280 243 -507 42 -107
90 -218 106 -247 l28 -52 -53 -26 c-62 -30 -153 -46 -211 -36 -39 7 -38 7 26
13 64 7 173 41 184 58 8 13 -189 456 -339 763 -75 153 -136 282 -136 285 1 18
46 -57 152 -251z m-217 -80 c-8 -51 -32 -148 -51 -216 -64 -220 -254 -747
-336 -931 l-25 -55 -23 45 c-36 71 -245 395 -327 508 -41 56 -90 113 -109 126
l-35 24 77 42 c172 94 445 297 609 452 44 42 114 117 155 166 l75 91 3 -80 c2
-44 -4 -122 -13 -172z m-2065 228 c0 -3 -29 -53 -65 -111 -440 -711 -477 -775
-458 -790 79 -63 246 -154 282 -154 8 0 12 -3 8 -6 -3 -3 -37 -1 -76 6 -58 10
-86 22 -162 71 -51 32 -100 61 -110 64 -27 9 -25 16 25 94 25 38 95 152 157
252 208 340 399 615 399 574z m218 -220 c111 -123 286 -285 368 -344 49 -35
151 -93 226 -130 76 -36 138 -69 138 -73 0 -5 -3 -7 -7 -7 -5 1 -36 1 -69 0
l-61 -1 -140 -192 c-77 -106 -172 -242 -212 -301 -41 -63 -73 -103 -76 -95 -3
7 -64 198 -135 423 -139 437 -164 535 -180 715 -16 181 -19 173 46 110 31 -30
77 -77 102 -105z m1328 -101 c-10 -25 -197 -228 -231 -251 -16 -10 -52 -33
-80 -49 -27 -17 -63 -39 -80 -50 -34 -22 -35 -25 46 96 31 47 71 113 88 148
17 34 37 62 43 62 12 0 121 31 178 50 38 12 43 11 36 -6z m-999 -24 c32 0 72
-20 113 -58 19 -17 42 -34 51 -37 9 -3 25 -31 36 -63 11 -31 23 -65 27 -75 20
-43 -181 94 -298 204 l-61 57 55 -14 c30 -8 64 -14 77 -14z m736 -52 c-102
-133 -176 -217 -211 -239 -41 -26 -44 -26 -75 -11 -101 50 -194 133 -211 187
-6 19 -2 20 82 16 112 -4 300 16 360 40 56 22 68 23 55 7z m1362 -118 c77 -52
173 -115 213 -139 93 -55 182 -121 182 -135 0 -6 -36 -47 -80 -91 -44 -44 -80
-76 -80 -73 0 4 29 40 65 80 36 40 65 76 65 79 0 8 -64 49 -179 115 -99 56
-213 140 -296 219 -75 70 -64 65 110 -55z m-3036 67 c-66 -50 -207 -138 -362
-227 -108 -62 -197 -118 -197 -124 0 -11 42 -76 125 -193 26 -36 25 -35 -14 7
-51 55 -133 175 -135 198 -1 11 86 66 289 182 160 92 292 165 294 163 2 -2 2
-4 0 -6z m1546 -317 c4 -7 -6 -10 -29 -8 -19 1 -32 6 -30 10 7 12 52 10 59 -2z
m-311 -504 l43 -43 -33 -65 c-46 -91 -109 -284 -130 -398 -10 -52 -21 -99 -25
-104 -5 -6 -32 -2 -68 9 l-59 18 -82 214 -81 215 39 52 c21 28 65 92 97 141
31 50 78 119 103 154 l45 64 54 -107 c33 -66 70 -124 97 -150z m1594 179 l153
-52 -41 -45 c-22 -25 -68 -70 -102 -99 -59 -50 -58 -48 21 34 47 47 83 88 80
90 -2 2 -40 16 -84 31 -83 29 -215 92 -215 102 0 3 8 3 18 -2 9 -4 86 -31 170
-59z m-1288 32 c0 -22 -46 -37 -110 -37 -47 0 -60 3 -60 15 0 8 6 15 13 16 23
1 49 8 55 13 3 3 27 6 54 6 33 0 48 -4 48 -13z m384 -230 l108 -158 -62 -142
c-34 -78 -71 -163 -83 -190 -19 -44 -23 -48 -81 -66 -33 -11 -64 -16 -67 -13
-3 4 -43 125 -89 270 l-82 263 44 47 c24 26 68 86 97 134 l54 87 26 -37 c15
-20 75 -108 135 -195z m-1835 198 c-3 -2 -39 -10 -81 -16 -104 -15 -107 -18
-81 -72 11 -24 49 -78 84 -121 117 -142 122 -152 38 -66 -46 47 -117 126 -156
177 -72 92 -72 92 -45 96 39 6 246 8 241 2z m2681 -248 c0 -2 -10 -12 -22 -23
l-23 -19 19 23 c18 21 26 27 26 19z"/>
<path d="M3956 5831 c5 -4 38 -13 74 -20 130 -25 308 -123 555 -306 218 -161
218 -160 14 26 -161 146 -297 228 -449 272 -85 24 -211 43 -194 28z"/>
<path d="M3888 5823 c7 -3 16 -2 19 1 4 3 -2 6 -13 5 -11 0 -14 -3 -6 -6z"/>
<path d="M4545 5787 c50 -24 151 -84 225 -134 74 -49 169 -108 210 -131 168
-92 344 -143 483 -141 l82 1 -65 9 c-259 34 -343 65 -605 228 -128 80 -346
194 -395 206 -14 3 16 -14 65 -38z"/>
<path d="M3705 5240 c4 -6 11 -8 16 -5 14 9 11 15 -7 15 -8 0 -12 -5 -9 -10z"/>
<path d="M5308 5233 c7 -3 16 -2 19 1 4 3 -2 6 -13 5 -11 0 -14 -3 -6 -6z"/>
<path d="M5204 5221 c5 -8 56 -3 56 5 0 2 -14 4 -31 4 -16 0 -28 -4 -25 -9z"/>
<path d="M3808 5168 c5 -5 16 -8 23 -6 8 3 3 7 -10 11 -17 4 -21 3 -13 -5z"/>
<path d="M3894 5115 c1 -9 12 -22 24 -31 20 -14 22 -14 22 0 0 9 -3 15 -7 15
-20 -3 -34 2 -28 10 3 5 1 12 -4 15 -5 4 -8 -1 -7 -9z"/>
<path d="M4027 5039 c7 -7 15 -10 18 -7 3 3 -2 9 -12 12 -14 6 -15 5 -6 -5z"/>
<path d="M4247 4959 c10 -10 81 -25 71 -15 -3 4 -23 12 -43 16 -22 5 -34 5
-28 -1z"/>
<path d="M5640 5152 c0 -5 7 -13 16 -16 10 -4 14 -1 12 6 -5 15 -28 23 -28 10z"/>
<path d="M5820 4819 c0 -5 5 -7 10 -4 6 3 10 8 10 11 0 2 -4 4 -10 4 -5 0 -10
-5 -10 -11z"/>
<path d="M5860 4740 c0 -5 5 -10 11 -10 5 0 7 5 4 10 -3 6 -8 10 -11 10 -2 0
-4 -4 -4 -10z"/>
<path d="M4379 4564 c-17 -41 -23 -190 -10 -235 6 -21 27 -56 46 -79 19 -23
35 -46 35 -51 0 -16 -32 -23 -51 -11 -34 22 -34 12 0 -16 l33 -28 -15 -50 c-9
-27 -23 -89 -31 -139 -9 -49 -22 -121 -30 -158 -7 -38 -11 -78 -8 -90 5 -17 8
-11 13 23 5 37 60 268 76 320 4 12 8 10 20 -7 15 -22 43 -32 43 -15 0 12 78
129 91 137 6 4 14 16 18 28 6 16 17 21 57 22 36 1 84 17 170 54 65 29 129 55
140 58 17 4 33 -8 70 -48 100 -110 145 -149 206 -180 l63 -31 -31 29 c-18 17
-39 52 -49 84 -54 163 -140 319 -177 319 -11 0 -104 -16 -208 -35 -103 -19
-224 -37 -269 -41 l-81 -7 -1 29 c-1 29 -1 29 -9 4 -17 -54 -18 -53 94 -46 57
3 176 20 266 36 225 42 210 44 256 -42 51 -96 133 -263 130 -265 -1 -1 -37 44
-81 99 -99 124 -119 147 -109 128 14 -27 85 -130 116 -168 17 -20 4 -10 -28
23 -33 33 -73 76 -89 97 l-30 36 -133 5 c-73 3 -131 3 -129 0 3 -2 27 -8 54
-13 l48 -9 -50 4 c-27 3 -61 7 -75 10 -22 4 -21 3 5 -9 17 -8 57 -18 90 -22
50 -6 55 -8 34 -14 -32 -9 -89 1 -143 23 -47 21 -45 21 -42 0 2 -9 9 -19 16
-21 8 -3 10 0 6 7 -5 8 0 8 19 -1 43 -19 4 -32 -41 -13 -20 8 -41 12 -47 8 -5
-3 -7 -1 -4 4 6 10 -17 26 -27 20 -2 -1 -13 7 -25 17 -12 11 -21 14 -21 8 0
-21 75 -73 130 -90 l55 -17 -47 -3 c-76 -5 -149 42 -182 118 -9 20 -15 27 -16
17 0 -27 36 -93 65 -115 14 -11 25 -23 25 -26 0 -3 -20 -6 -44 -6 -52 0 -101
30 -130 79 -24 41 -34 176 -17 236 13 47 6 59 -10 19z m541 -234 c0 -5 -12
-10 -27 -9 -25 0 -26 1 -8 9 27 12 35 12 35 0z m-143 -46 c-3 -3 -12 -4 -19
-1 -8 3 -5 6 6 6 11 1 17 -2 13 -5z"/>
<path d="M4215 4560 c12 -39 10 -202 -4 -242 -7 -20 -27 -50 -45 -66 -35 -31
-106 -49 -132 -34 -13 7 -11 12 11 26 28 18 64 87 65 121 0 11 -11 -4 -25 -34
-14 -30 -28 -51 -31 -48 -3 3 -17 -6 -30 -21 l-25 -27 27 53 c15 29 24 55 21
58 -3 3 -8 -4 -12 -15 -3 -12 -11 -19 -16 -15 -5 3 -28 -10 -49 -30 -22 -20
-46 -36 -53 -36 -6 1 -1 10 12 21 34 28 19 35 -18 8 -17 -13 -27 -26 -21 -29
6 -3 -50 -7 -122 -8 -73 -2 -149 -5 -168 -9 -52 -9 -132 -49 -181 -91 -40 -34
-45 -30 -11 10 7 9 11 21 8 27 -12 18 32 87 85 135 77 69 126 80 319 72 190
-8 290 0 290 23 0 9 -5 23 -11 31 -9 12 -10 11 -6 -7 l5 -23 -237 0 -238 0
-61 -31 c-110 -54 -188 -166 -213 -302 -10 -53 -10 -72 0 -90 14 -25 67 -51
77 -36 3 5 22 9 43 9 43 0 91 29 161 96 56 55 100 76 168 82 72 6 134 -13 204
-65 72 -53 89 -49 27 6 -73 66 -134 95 -204 95 -78 1 -132 -25 -227 -111 -40
-36 -88 -73 -105 -81 -31 -15 -36 -14 -80 4 -65 27 -66 45 -5 103 61 60 174
117 246 126 56 7 230 -6 365 -27 72 -11 74 -12 102 -57 16 -24 29 -54 29 -65
0 -17 -3 -16 -16 9 -8 16 -18 32 -22 35 -4 3 -16 18 -26 34 -12 19 -21 25 -28
18 -12 -12 35 -101 77 -146 24 -26 26 -36 31 -160 5 -121 4 -134 -16 -166 -11
-19 -30 -56 -42 -81 -11 -26 -34 -54 -49 -63 -15 -9 -67 -75 -114 -147 -47
-71 -127 -180 -177 -242 -118 -146 -132 -178 -130 -287 1 -47 8 -107 15 -135
14 -48 14 -46 9 62 -5 127 6 172 62 246 17 23 80 109 140 190 l109 148 17 -38
c34 -74 99 -110 170 -94 35 8 55 6 94 -6 45 -15 51 -15 80 1 22 12 53 16 107
15 56 -1 83 3 102 15 25 17 52 62 59 101 3 15 14 4 49 -50 25 -39 89 -116 142
-173 74 -79 101 -116 117 -160 25 -66 40 -139 40 -193 0 -21 5 -41 10 -44 15
-9 12 119 -4 197 -20 90 -34 114 -127 216 -44 48 -111 134 -149 192 -107 163
-127 187 -175 215 -25 15 -50 28 -57 29 -7 1 -18 5 -25 9 -8 5 -10 -9 -6 -51
6 -68 -8 -103 -61 -150 -50 -44 -94 -50 -153 -21 -67 34 -88 67 -87 137 0 59
18 104 60 155 33 40 38 83 25 225 -18 186 -19 190 -57 232 l-34 38 44 26 c54
31 83 87 92 172 6 65 -9 181 -27 198 -8 8 -9 5 -4 -14z m-216 -286 c-13 -15
-38 -33 -56 -40 -53 -23 -51 -16 3 16 28 16 54 37 58 46 4 9 9 14 13 10 4 -3
-4 -18 -18 -32z m104 -830 c4 -7 0 -18 -9 -25 -21 -18 -44 -64 -44 -90 0 -21
-1 -21 -21 5 -32 41 -36 97 -9 140 12 20 31 43 43 51 21 15 22 14 27 -27 3
-24 9 -48 13 -54z m402 84 c33 -15 65 -76 65 -120 -1 -18 -9 -48 -19 -67 l-18
-33 -13 32 c-14 34 -67 80 -94 80 -15 0 -14 4 4 40 11 21 20 48 20 60 0 23 17
25 55 8z"/>
<path d="M4943 4412 c4 -5 25 -12 47 -14 49 -4 39 8 -14 18 -26 4 -37 3 -33
-4z"/>
<path d="M4895 4386 c17 -9 45 -15 63 -16 18 0 42 -5 53 -10 13 -7 19 -7 19
-1 0 11 -15 15 -80 25 -19 3 -46 8 -60 11 -22 4 -21 3 5 -9z"/>
<path d="M4647 4346 c-6 -14 0 -26 14 -26 8 0 6 26 -3 35 -3 3 -8 -1 -11 -9z"/>
<path d="M4056 4315 c-9 -26 -7 -32 5 -12 6 10 9 21 6 23 -2 3 -7 -2 -11 -11z"/>
<path d="M3525 4280 c-50 -29 -113 -86 -104 -94 3 -3 36 20 74 50 107 85 112
92 30 44z"/>
<path d="M3780 4289 c-30 -4 -66 -13 -80 -19 l-25 -10 25 4 c14 3 53 8 88 12
34 3 62 11 62 15 0 5 -3 8 -7 8 -5 -1 -33 -5 -63 -10z"/>
<path d="M4705 4171 c-38 -18 -160 -129 -151 -139 3 -2 31 17 62 43 78 63 108
77 180 83 103 8 203 -41 245 -121 10 -17 4 -14 -26 12 -58 51 -110 71 -185 71
-54 0 -74 -6 -115 -30 -27 -16 -74 -41 -102 -57 -54 -27 -67 -43 -37 -43 9 0
58 -17 108 -37 82 -34 100 -38 183 -38 79 0 95 3 122 22 34 26 48 23 125 -25
55 -35 146 -58 261 -66 l80 -5 -53 13 c-29 8 -85 17 -123 21 -39 4 -68 9 -66
11 2 3 42 11 88 18 76 13 139 30 139 39 0 1 -46 -5 -102 -15 -125 -21 -168
-22 -193 -5 -16 12 -11 15 41 20 32 3 84 15 116 26 55 19 112 50 105 57 -2 2
-42 -10 -89 -26 -101 -35 -200 -49 -222 -31 -8 7 -23 35 -32 63 -22 69 -85
131 -146 146 -68 17 -166 14 -213 -7z m69 -105 c-9 -35 20 -94 53 -107 47 -18
104 -5 134 31 21 25 28 28 32 15 12 -30 -10 -63 -50 -74 -73 -20 -121 -12
-256 42 l-78 31 37 13 c21 7 45 20 53 27 14 13 71 46 79 46 1 0 0 -11 -4 -24z
m106 8 c0 -2 -7 -4 -15 -4 -8 0 -15 4 -15 10 0 5 7 7 15 4 8 -4 15 -8 15 -10z
m50 -64 c-19 -36 -106 -38 -118 -2 -3 11 6 12 41 7 28 -4 47 -3 51 4 4 6 14
11 22 11 12 0 12 -4 4 -20z"/>
<path d="M3775 4101 c-41 -10 -65 -24 -174 -98 -99 -67 -145 -83 -242 -83 -29
0 -49 -4 -49 -11 0 -15 158 -5 225 14 42 12 63 12 135 1 127 -20 195 -10 353
52 26 10 47 21 46 24 0 3 -48 29 -107 58 -106 52 -128 57 -187 43z m93 -63 c2
-22 -1 -38 -7 -38 -6 0 -11 -7 -11 -15 0 -22 -46 -37 -83 -27 -36 9 -56 47
-42 78 8 17 9 16 13 -6 5 -34 20 -50 47 -50 26 0 81 40 67 49 -5 3 -15 16 -21
29 -12 22 -11 23 11 20 19 -2 24 -10 26 -40z m-58 11 c0 -12 -37 -12 -45 0 -3
5 3 11 12 13 21 5 33 0 33 -13z m126 -14 c18 -14 43 -29 54 -33 18 -7 11 -12
-45 -35 -78 -32 -105 -36 -80 -10 23 22 35 57 28 82 -7 27 3 27 43 -4z m-213
-82 c13 -15 16 -23 8 -23 -18 0 -111 34 -111 40 0 3 17 17 38 32 l37 26 3 -26
c2 -15 13 -37 25 -49z"/>
<path d="M4440 4032 c0 -26 20 -50 70 -82 27 -18 70 -59 95 -93 85 -115 95
-126 143 -154 64 -38 163 -40 235 -4 62 30 55 38 -9 9 -109 -49 -210 -21 -291
82 -24 30 -58 72 -75 93 -16 21 -55 55 -85 74 -30 20 -61 48 -68 62 -8 14 -14
20 -15 13z"/>
<path d="M3970 3903 c-117 -98 -190 -105 -365 -38 -13 5 -17 5 -10 -2 6 -5 37
-20 69 -33 122 -48 230 -23 327 76 55 56 48 56 -21 -3z"/>
<path d="M4635 3904 c50 -39 102 -57 170 -60 l70 -4 -68 15 c-37 7 -93 25
-124 39 -63 30 -77 32 -48 10z"/>
<path d="M3484 3879 c-30 -25 -34 -31 -16 -26 19 4 26 -2 47 -44 30 -59 30
-59 3 -59 -15 0 -9 -6 23 -23 24 -13 68 -38 97 -57 41 -26 67 -35 111 -38 82
-6 127 20 194 109 28 38 51 72 49 75 -2 3 5 12 15 19 10 7 15 16 12 19 -8 9
-81 -62 -75 -72 3 -5 0 -9 -7 -9 -7 0 -32 -14 -57 -31 -31 -21 -64 -34 -108
-40 -34 -5 -60 -7 -57 -4 3 3 -12 13 -33 22 -20 9 -57 37 -81 61 -24 24 -48
43 -53 41 -5 -1 -7 2 -4 7 3 5 -6 17 -21 26 l-27 18 23 18 c13 11 19 19 13 19
-5 0 -27 -14 -48 -31z m211 -179 c3 -5 2 -10 -4 -10 -5 0 -13 5 -16 10 -3 6
-2 10 4 10 5 0 13 -4 16 -10z"/>
<path d="M3401 3874 c-56 -26 -144 -84 -137 -91 5 -6 194 96 202 108 8 13 -5
10 -65 -17z"/>
<path d="M5094 3859 c-3 -5 1 -9 9 -9 8 0 72 -29 142 -65 144 -73 147 -52 4
24 -85 46 -145 65 -155 50z"/>
<path d="M4274 3173 c-10 -27 -23 -55 -31 -64 -17 -20 -17 -29 0 -29 22 0 44
32 51 73 4 21 10 45 13 53 3 8 1 14 -5 14 -6 0 -18 -21 -28 -47z"/>
<path d="M5177 3055 c-9 -29 -55 -328 -61 -405 -11 -121 12 -22 44 193 28 189
34 267 17 212z"/>
<path d="M4325 3004 c-24 -9 -54 -13 -75 -9 -106 18 -99 19 -239 -49 -74 -36
-141 -66 -148 -66 -7 0 -13 -7 -13 -15 0 -9 -9 -15 -21 -15 -18 0 -21 5 -17
30 3 17 2 30 -2 30 -10 0 -30 -48 -30 -71 0 -18 5 -19 73 -13 39 3 121 17 181
31 113 25 107 25 224 -4 13 -3 54 5 91 17 l67 23 115 -21 c64 -12 142 -22 173
-22 43 0 64 -5 84 -21 37 -29 40 -7 7 43 -24 37 -29 40 -40 25 -9 -12 -14 -14
-23 -5 -7 7 -34 18 -61 24 -27 7 -94 33 -150 58 -108 49 -133 53 -196 30z
m145 -34 l55 -29 -57 5 c-35 3 -72 -1 -100 -11 -62 -21 -95 -21 -163 -1 -37
11 -75 16 -100 12 l-40 -6 49 26 c47 25 53 26 103 14 44 -11 61 -11 105 2 74
22 86 21 148 -12z"/>
<path d="M3950 2815 c0 -50 54 -120 137 -178 50 -35 53 -36 170 -40 65 -3 134
-8 153 -12 33 -6 38 -3 73 39 21 26 54 74 73 109 20 34 43 70 51 80 21 23 5
22 -21 -2 -36 -32 -196 -64 -326 -65 -124 -1 -184 14 -246 61 -35 26 -64 30
-64 8z"/>
<path d="M4219 2579 c-77 -11 -159 -49 -213 -100 -26 -23 -45 -44 -42 -46 2
-2 34 16 70 40 89 60 168 81 283 75 80 -4 99 -8 181 -48 51 -24 95 -41 98 -38
3 4 -25 24 -63 46 -111 65 -205 86 -314 71z"/>
</g>
</svg>
