
<svg
  xmlns="http://www.w3.org/2000/svg"  fill="none"
>
  <symbol
    id="warning"
    viewBox="0 0 24 24"
  >
    <path fill-rule="evenodd" 
      clip-rule="evenodd" 
      d="M11.5 22.75C17.7132 22.75 22.75 17.7132 22.75 11.5C22.75 5.2868 17.7132 0.25 11.5 0.25C5.2868 0.25 0.25 5.2868 0.25 11.5C0.25 17.7132 5.2868 22.75 11.5 22.75ZM10.0938 6.34375C10.0938 5.5671 10.7233 4.9375 11.5 4.9375C12.2767 4.9375 12.9062 5.5671 12.9062 6.34375V13.8438C12.9062 14.6204 12.2767 15.25 11.5 15.25C10.7233 15.25 10.0938 14.6204 10.0938 13.8438V6.34375ZM10.0938 17.5938C10.0938 16.8171 10.7233 16.1875 11.5 16.1875C12.2767 16.1875 12.9062 16.8171 12.9062 17.5938C12.9062 18.3704 12.2767 19 11.5 19C10.7233 19 10.0938 18.3704 10.0938 17.5938Z" 
      fill="currentColor"
    />
  </symbol>
  <symbol id="bell" viewBox="0 0 24 24">
    <path fill-rule="evenodd" 
      clip-rule="evenodd" 
      d="M3.91368 6.36978C3.91368 3.28467 6.41466 0.783691 9.49977 0.783691C12.5849 0.783691 15.0859 3.28467 15.0859 6.36978V8.63366C15.1377 9.14203 15.2804 9.63795 15.5079 10.0976L16.8598 12.8279C17.3291 13.7757 16.6395 14.8866 15.5819 14.8866H3.41802C2.36042 14.8866 1.67084 13.7757 2.14011 12.8279L3.46968 10.1425C3.75607 9.56412 3.90779 8.92854 3.91368 8.28347V6.36978ZM9.49796 18.9996C8.04712 18.9996 6.84685 18.0796 6.6472 16.8827H12.3487C12.1491 18.0796 10.9488 18.9996 9.49796 18.9996ZM6.61803 16.5299L6.61808 16.516V16.5438L6.61803 16.5299Z" 
      fill="currentColor"
    />
  </symbol>
  <symbol id="destinations" viewBox="0 0 24 24">
    <path d="M9.95925 18.5719L18.9367 0.982996L0.00664781 6.6058L3.87046 11.2648L14.948 4.30053L6.08215 13.9239L9.95925 18.5719Z" 
      fill="currentColor"
    />
  </symbol>
  <symbol id="config" viewBox="0 0 24 24">
    <g clip-path="url(#clip0_1809_95)">
      <path d="M3 17V19H9V17H3ZM3 5V7H13V5H3ZM13 21V19H21V17H13V15H11V21H13ZM7 9V11H3V13H7V15H9V9H7ZM21 13V11H11V13H21ZM15 9H17V7H21V5H17V3H15V9Z" 
        fill="currentColor"
      />
    </g>
    <defs>
      <clipPath id="clip0_1809_95">
        <rect width="24" height="24" fill="white"/>
      </clipPath>
    </defs>
  </symbol>
  <symbol id="user-protrait" viewBox="0 0 10 10">
    <g>
      <ellipse cx="4.82199" 
        cy="1.64681" 
        rx="1.6257" 
        ry="1.64681" 
        fill="currentColor"
      />
      <path 
        d="M9.15769 8.23428C9.15769 10.6596 7.21676 9.88109 4.8225 9.88109C2.42824 9.88109 0.487305 10.6596 0.487305 8.23428C0.487305 5.80892 2.42824 3.84277 4.8225 3.84277C7.21676 3.84277 9.15769 5.80892 9.15769 8.23428Z" 
        fill="currentColor"
      />
    </g>
  </symbol>
        
</svg>