
<svg
  xmlns="http://www.w3.org/2000/svg"  fill="none"
>
  <symbol
    id="warning"
    viewBox="0 0 24 24"
  >
    <path fill-rule="evenodd" 
      clip-rule="evenodd" 
      d="M11.5 22.75C17.7132 22.75 22.75 17.7132 22.75 11.5C22.75 5.2868 17.7132 0.25 11.5 0.25C5.2868 0.25 0.25 5.2868 0.25 11.5C0.25 17.7132 5.2868 22.75 11.5 22.75ZM10.0938 6.34375C10.0938 5.5671 10.7233 4.9375 11.5 4.9375C12.2767 4.9375 12.9062 5.5671 12.9062 6.34375V13.8438C12.9062 14.6204 12.2767 15.25 11.5 15.25C10.7233 15.25 10.0938 14.6204 10.0938 13.8438V6.34375ZM10.0938 17.5938C10.0938 16.8171 10.7233 16.1875 11.5 16.1875C12.2767 16.1875 12.9062 16.8171 12.9062 17.5938C12.9062 18.3704 12.2767 19 11.5 19C10.7233 19 10.0938 18.3704 10.0938 17.5938Z" 
      fill="currentColor"
    />
  </symbol>
  <symbol id="inbox" viewBox="0 0 24 24">
    <path d="M15.1022 7.36975C15.8463 7.7321 16.6889 7.83937 17.5 7.675V16C17.5 16.1989 17.421 16.3897 17.2803 16.5303C17.1397 16.671 16.9489 16.75 16.75 16.75H3.25C3.05109 16.75 2.86032 16.671 2.71967 16.5303C2.57902 16.3897 2.5 16.1989 2.5 16V4C2.5 3.80109 2.57902 3.61032 2.71967 3.46967C2.86032 3.32902 3.05109 3.25 3.25 3.25H13.075C13.0255 3.49225 13 3.7435 13 4C12.9988 4.89104 13.3161 5.75317 13.8948 6.43075L10.0457 9.76225L5.23525 5.6785L4.26475 6.8215L10.0547 11.7378L15.1022 7.36975ZM16.75 6.25C16.4545 6.25 16.1619 6.1918 15.889 6.07873C15.616 5.96566 15.3679 5.79992 15.159 5.59099C14.9501 5.38206 14.7843 5.13402 14.6713 4.86104C14.5582 4.58806 14.5 4.29547 14.5 4C14.5 3.70453 14.5582 3.41194 14.6713 3.13896C14.7843 2.86598 14.9501 2.61794 15.159 2.40901C15.3679 2.20008 15.616 2.03434 15.889 1.92127C16.1619 1.8082 16.4545 1.75 16.75 1.75C17.3467 1.75 17.919 1.98705 18.341 2.40901C18.7629 2.83097 19 3.40326 19 4C19 4.59674 18.7629 5.16903 18.341 5.59099C17.919 6.01295 17.3467 6.25 16.75 6.25Z" fill="currentColor"/>

  </symbol>
  <symbol id="destinations" viewBox="0 0 24 24">
    <path d="M16.75 3.25049C16.9489 3.25049 17.1397 3.32951 17.2803 3.47016C17.421 3.61081 17.5 3.80158 17.5 4.00049V8.12549C17.0027 8.12549 16.5258 8.32303 16.1742 8.67466C15.8225 9.02629 15.625 9.50321 15.625 10.0005C15.625 10.4978 15.8225 10.9747 16.1742 11.3263C16.5258 11.6779 17.0027 11.8755 17.5 11.8755V16.0005C17.5 16.1994 17.421 16.3902 17.2803 16.5308C17.1397 16.6715 16.9489 16.7505 16.75 16.7505H3.25C3.05109 16.7505 2.86032 16.6715 2.71967 16.5308C2.57902 16.3902 2.5 16.1994 2.5 16.0005V11.8755C2.99728 11.8755 3.47419 11.6779 3.82583 11.3263C4.17746 10.9747 4.375 10.4978 4.375 10.0005C4.375 9.50321 4.17746 9.02629 3.82583 8.67466C3.47419 8.32303 2.99728 8.12549 2.5 8.12549V4.00049C2.5 3.80158 2.57902 3.61081 2.71967 3.47016C2.86032 3.32951 3.05109 3.25049 3.25 3.25049H16.75ZM13 7.75049H7V12.2505H13V7.75049Z" fill="currentColor"/>

  </symbol>
  <symbol id="config" viewBox="0 0 24 24">
      <path d="M8.46505 2.65607C9.47674 2.44392 10.5214 2.44341 11.5333 2.65457C11.6007 3.09954 11.7675 3.52359 12.0214 3.89521C12.2752 4.26683 12.6096 4.57645 12.9995 4.80107C13.3892 5.02647 13.8247 5.16112 14.2736 5.19501C14.7225 5.2289 15.1732 5.16116 15.5923 4.99682C16.281 5.76787 16.8027 6.6731 17.1245 7.65557C16.7731 7.93651 16.4894 8.29304 16.2946 8.69867C16.0999 9.1043 15.999 9.54861 15.9995 9.99857C15.9995 10.9466 16.439 11.7918 17.126 12.3416C16.8023 13.3232 16.28 14.2277 15.5915 14.9988C15.1726 14.8346 14.7219 14.7669 14.2732 14.8008C13.8245 14.8347 13.3891 14.9693 12.9995 15.1946C12.6099 15.4191 12.2758 15.7286 12.0221 16.0999C11.7684 16.4712 11.6016 16.8949 11.534 17.3396C10.5225 17.5522 9.4778 17.5532 8.4658 17.3426C8.39871 16.8972 8.23203 16.4727 7.97816 16.1007C7.7243 15.7287 7.3898 15.4187 6.99955 15.1938C6.60982 14.9685 6.17432 14.834 5.72544 14.8003C5.27655 14.7665 4.82584 14.8344 4.4068 14.9988C3.718 14.2276 3.1963 13.3221 2.87455 12.3393C3.22584 12.0585 3.50939 11.7023 3.70415 11.2969C3.89891 10.8916 3.99987 10.4475 3.99955 9.99782C3.99992 9.54773 3.89883 9.10335 3.7038 8.69771C3.50877 8.29207 3.22481 7.93561 2.87305 7.65482C3.1968 6.67317 3.71914 5.76865 4.40755 4.99757C4.82654 5.16179 5.27715 5.22947 5.72589 5.19558C6.17464 5.16169 6.60997 5.02711 6.99955 4.80182C7.38921 4.57727 7.72329 4.26784 7.97699 3.8965C8.2307 3.52517 8.39751 3.10146 8.46505 2.65682V2.65607ZM9.99955 12.2486C10.5963 12.2486 11.1686 12.0115 11.5905 11.5896C12.0125 11.1676 12.2495 10.5953 12.2495 9.99857C12.2495 9.40184 12.0125 8.82954 11.5905 8.40758C11.1686 7.98563 10.5963 7.74857 9.99955 7.74857C9.40281 7.74857 8.83051 7.98563 8.40856 8.40758C7.9866 8.82954 7.74955 9.40184 7.74955 9.99857C7.74955 10.5953 7.9866 11.1676 8.40856 11.5896C8.83051 12.0115 9.40281 12.2486 9.99955 12.2486Z" fill="currentColor"/>

    <defs>
      <clipPath id="clip0_1809_95">
        <rect width="24" height="24" fill="white"/>
      </clipPath>
    </defs>
  </symbol>
  <symbol id="user-protrait" viewBox="0 0 24 24">
  <path d="M16 17.5015H4V16.0015C4 15.0069 4.39509 14.0531 5.09835 13.3498C5.80161 12.6466 6.75544 12.2515 7.75 12.2515H12.25C13.2446 12.2515 14.1984 12.6466 14.9017 13.3498C15.6049 14.0531 16 15.0069 16 16.0015V17.5015ZM10 10.7515C9.40905 10.7515 8.82389 10.6351 8.27792 10.4089C7.73196 10.1828 7.23588 9.85131 6.81802 9.43344C6.40016 9.01558 6.06869 8.51951 5.84254 7.97354C5.6164 7.42757 5.5 6.84241 5.5 6.25146C5.5 5.66052 5.6164 5.07535 5.84254 4.52939C6.06869 3.98342 6.40016 3.48735 6.81802 3.06948C7.23588 2.65162 7.73196 2.32015 8.27792 2.09401C8.82389 1.86786 9.40905 1.75146 10 1.75146C11.1935 1.75146 12.3381 2.22557 13.182 3.06948C14.0259 3.9134 14.5 5.05799 14.5 6.25146C14.5 7.44494 14.0259 8.58953 13.182 9.43344C12.3381 10.2774 11.1935 10.7515 10 10.7515Z" fill="currentColor"/>

  </symbol>
  <symbol id="UP_ARROW" viewBox="0 0 24 24">
    <path
      d="M8 10.5293L12 6.99995M12 6.99995L16 10.5293M12 6.99995V16.9999"
      stroke="currentColor"
      strokeWidth="1.5"
      strokeLinecap="round"
      strokeLinejoin="round"
    />
  </symbol>
  <symbol id="DOWN_ARROW" viewBox="0 0 24 24">
    <path
      d="M8 13.4707L12 17M12 17L16 13.4707M12 17V7"
      stroke="currentColor"
      strokeWidth="1.5"
      strokeLinecap="round"
      strokeLinejoin="round"
    />
  </symbol>
  <symbol id="PERCENT" viewBox="0 0 24 24">
    <circle cx="8" cy="9" r="1.75" stroke="currentColor" strokeWidth="1.5" />
      <circle
        cx="16"
        cy="14"
        r="1.75"
        stroke="currentColor"
        strokeWidth="1.5"
      />
      <line
        x1="9.22548"
        y1="16.4982"
        x2="14.8394"
        y2="6.77452"
        stroke="currentColor"
        strokeWidth="1.5"
        strokeLinecap="round"
      />
  </symbol>
  <symbol id="CLOCK" viewBox="0 0 35 35" fill="none">
    <!-- NOTE: Default Notifi clock icon -->
    <!-- <path
      fillRule="evenodd"
      clipRule="evenodd"
      d="M12 18C15.3137 18 18 15.3137 18 12C18 8.68629 15.3137 6 12 6C8.68629 6 6 8.68629 6 12C6 15.3137 8.68629 18 12 18ZM12.75 8C12.75 7.58579 12.4142 7.25 12 7.25C11.5858 7.25 11.25 7.58579 11.25 8V12.5V12.8107L11.4697 13.0303L13.9697 15.5303C14.2626 15.8232 14.7374 15.8232 15.0303 15.5303C15.3232 15.2374 15.3232 14.7626 15.0303 14.4697L12.75 12.1893V8Z"
      fill="currentColor"
    /> -->
    <!--NOTE:  radial clock orange -->
    <circle id="Ellipse 1005" cx="15.8211" cy="16.0728" r="3.5" transform="rotate(-45 15.8211 16.0728)" fill="#FFB13D" stroke="white" stroke-width="3"/>
    <path id="Ellipse 1007" d="M17.3177 8.21315C14.8055 7.73741 12.1094 8.4717 10.165 10.416C8.22073 12.3603 7.48644 15.0565 7.96218 17.5686" stroke="#FFB13D" stroke-width="2"/>
    <path id="Ellipse 1009" d="M24.0349 14.9304C24.5106 17.4426 23.7763 20.1387 21.832 22.083C19.8877 24.0273 17.1916 24.7616 14.6794 24.2859" stroke="#FFB13D" stroke-width="2"/>
    <path id="Ellipse 1008" d="M17.7645 4.23038C14.083 3.6295 10.1752 4.74859 7.33617 7.58766C4.4971 10.4267 3.37801 14.3345 3.97889 18.016" stroke="#FFB13D" stroke-width="2"/>
    <path id="Ellipse 1010" d="M28.0177 14.4835C28.6186 18.1651 27.4995 22.0728 24.6604 24.9119C21.8213 27.7509 17.9136 28.87 14.232 28.2692" stroke="#FFB13D" stroke-width="2"/>

  </symbol>
  <symbol id="CHECKMARK" viewBox="0 0 24 24">
    <path
        d="M6 12.5L9.84 16L18 8"
        stroke="currentColor"
        strokeWidth="1.5"
        strokeLinecap="round"
      />
  </symbol>
  <symbol id="STAR" viewBox="0 0 24 24">
    <path
        d="M12 5L13.5716 9.83688H18.6574L14.5429 12.8262L16.1145 17.6631L12 14.6738L7.8855 17.6631L9.4571 12.8262L5.3426 9.83688H10.4284L12 5Z"
        fill="currentColor"
      />
  </symbol>
  <symbol id="MEGAPHONE" viewBox="0 0 24 24">
    <path
        d="M16.7498 10.7917V12.2084H19.5832V10.7917H16.7498ZM15.3332 15.4738C16.0132 15.9767 16.8986 16.6425 17.5998 17.1667C17.8832 16.7913 18.1665 16.4088 18.4498 16.0334C17.7486 15.5092 16.8632 14.8434 16.1832 14.3334C15.8998 14.7159 15.6165 15.0984 15.3332 15.4738ZM18.4498 6.96671C18.1665 6.59129 17.8832 6.20879 17.5998 5.83337C16.8986 6.35754 16.0132 7.02337 15.3332 7.53337C15.6165 7.90879 15.8998 8.29129 16.1832 8.66671C16.8632 8.15671 17.7486 7.49796 18.4498 6.96671ZM6.83317 9.37504C6.054 9.37504 5.4165 10.0125 5.4165 10.7917V12.2084C5.4165 12.9875 6.054 13.625 6.83317 13.625H7.5415V16.4584H8.95817V13.625H9.6665L13.2082 15.75V7.25004L9.6665 9.37504H6.83317ZM14.979 11.5C14.979 10.558 14.5682 9.70796 13.9165 9.12712V13.8659C14.5682 13.2921 14.979 12.4421 14.979 11.5Z"
        fill="currentColor"
      />
  </symbol>
  <symbol id="CHART" viewBox="0 0 24 24">
    <path
        d="M17.0556 5.5H6.94444C6.15 5.5 5.5 6.15 5.5 6.94444V17.0556C5.5 17.85 6.15 18.5 6.94444 18.5H17.0556C17.85 18.5 18.5 17.85 18.5 17.0556V6.94444C18.5 6.15 17.85 5.5 17.0556 5.5ZM9.83333 15.6111H8.38889V10.5556H9.83333V15.6111ZM12.7222 15.6111H11.2778V8.38889H12.7222V15.6111ZM15.6111 15.6111H14.1667V12.7222H15.6111V15.6111Z"
        fill="currentColor"
      />
  </symbol>
  <symbol id="DAO" viewBox="-1 -2 24 24">
    <!-- NOTE: Default Notifi dao icon -->
    <!-- <path
      fillRule="evenodd"
      clipRule="evenodd"
      d="M17.0623 7.92265L12.0002 5L6.93799 7.92265L12.0002 10.8453L17.0623 7.92265ZM12.0002 12L5.93799 8.5V15.5L12.0002 19L18.0623 15.5V8.5L12.0002 12Z"
      fill="currentColor"
    /> -->
    <!--NOTE:  People group blue -->
    <path fill-rule="evenodd" clip-rule="evenodd" d="M17.5 10.6364C18.5042 10.6364 19.3182 9.82234 19.3182 8.81818C19.3182 7.81403 18.5042 7 17.5 7C16.4958 7 15.6818 7.81403 15.6818 8.81818C15.6818 9.82234 16.4958 10.6364 17.5 10.6364ZM16.4091 11.3633C14.8024 11.3633 13.5 12.6657 13.5 14.2724V14.9996H21.5V14.2724C21.5 12.6657 20.1976 11.3633 18.5909 11.3633H16.4091Z" fill="white"/>
    <path fill-rule="evenodd" clip-rule="evenodd" d="M4.5 10.6364C5.50415 10.6364 6.31818 9.82234 6.31818 8.81818C6.31818 7.81403 5.50415 7 4.5 7C3.49585 7 2.68182 7.81403 2.68182 8.81818C2.68182 9.82234 3.49585 10.6364 4.5 10.6364ZM3.40909 11.3633C1.80244 11.3633 0.5 12.6657 0.5 14.2724V14.9996H8.5V14.2724C8.5 12.6657 7.19756 11.3633 5.59091 11.3633H3.40909Z" fill="white"/>
    <mask id="path-3-outside-1_2477_6633" maskUnits="userSpaceOnUse" x="4.5" y="5" width="13" height="13" fill="black">
    <rect fill="white" x="4.5" y="5" width="13" height="13"/>
    <path fill-rule="evenodd" clip-rule="evenodd" d="M11 11C12.3807 11 13.5 9.88071 13.5 8.5C13.5 7.11929 12.3807 6 11 6C9.61929 6 8.5 7.11929 8.5 8.5C8.5 9.88071 9.61929 11 11 11ZM9.5 12C7.29086 12 5.5 13.7909 5.5 16V17H16.5V16C16.5 13.7909 14.7091 12 12.5 12H9.5Z"/>
    </mask>
    <path fill-rule="evenodd" clip-rule="evenodd" d="M11 11C12.3807 11 13.5 9.88071 13.5 8.5C13.5 7.11929 12.3807 6 11 6C9.61929 6 8.5 7.11929 8.5 8.5C8.5 9.88071 9.61929 11 11 11ZM9.5 12C7.29086 12 5.5 13.7909 5.5 16V17H16.5V16C16.5 13.7909 14.7091 12 12.5 12H9.5Z" fill="white"/>
    <path d="M5.5 17H4.5V18H5.5V17ZM16.5 17V18H17.5V17H16.5ZM12.5 8.5C12.5 9.32843 11.8284 10 11 10V12C12.933 12 14.5 10.433 14.5 8.5H12.5ZM11 7C11.8284 7 12.5 7.67157 12.5 8.5H14.5C14.5 6.567 12.933 5 11 5V7ZM9.5 8.5C9.5 7.67157 10.1716 7 11 7V5C9.067 5 7.5 6.567 7.5 8.5H9.5ZM11 10C10.1716 10 9.5 9.32843 9.5 8.5H7.5C7.5 10.433 9.067 12 11 12V10ZM6.5 16C6.5 14.3431 7.84315 13 9.5 13V11C6.73858 11 4.5 13.2386 4.5 16H6.5ZM6.5 17V16H4.5V17H6.5ZM16.5 16H5.5V18H16.5V16ZM15.5 16V17H17.5V16H15.5ZM12.5 13C14.1569 13 15.5 14.3431 15.5 16H17.5C17.5 13.2386 15.2614 11 12.5 11V13ZM9.5 13H12.5V11H9.5V13Z" fill="#DDDFFF" mask="url(#path-3-outside-1_2477_6633)"/>
    <line x1="11" y1="4" x2="11" stroke="#343FF5" stroke-width="1.5"/>
    <path d="M14.5 4.5L16 1.5" stroke="#343FF5" stroke-width="1.5"/>
    <path d="M6 1.5L7.5 4.5" stroke="#343FF5" stroke-width="1.5"/>
  </symbol>
  <symbol id="FLAG" viewBox="0 0 24 24">
    <path
        d="M14.1882 7.52941L13.8824 6H7V19H8.52941V13.6471H12.8118L13.1176 15.1765H18.4706V7.52941H14.1882Z"
        fill="currentColor"
      />
  </symbol>
  <symbol id="GRAPH" viewBox="0 0 24 24">
    <path
        d="M7 16.5L10.5 11L13 14L17 8"
        stroke="currentColor"
        strokeWidth="1.5"
        strokeLinecap="round"
      />
  </symbol>
  <symbol id="INFO" viewBox="2 3 24 24">
      <!--NOTE:  Lightbulb green -->
      <path id="Vector" d="M9.34689 19.4001C9.07959 18.2544 7.87359 17.3175 7.37859 16.7001C6.53096 15.641 5.99974 14.3641 5.84613 13.0163C5.69251 11.6686 5.92275 10.3049 6.51032 9.08224C7.09788 7.85963 8.01888 6.82786 9.16721 6.1058C10.3155 5.38374 11.6445 5.00076 13.001 5.00098C14.3574 5.00119 15.6863 5.3846 16.8344 6.10703C17.9825 6.82946 18.9031 7.86152 19.4903 9.08432C20.0775 10.3071 20.3073 11.6709 20.1532 13.0186C19.9992 14.3663 19.4676 15.6431 18.6196 16.7019C18.1246 17.3184 16.9204 18.2553 16.6531 19.4001H9.34689ZM13.9 12.2046V8.60007L9.84999 14.0046H12.1V17.6046L16.15 12.2046H13.9Z" fill="currentColor"/>
    <path id="Vector_2" d="M16.6004 22.1002V21.2002H9.40039V22.1002C9.40039 22.5776 9.59003 23.0354 9.9276 23.373C10.2652 23.7106 10.723 23.9002 11.2004 23.9002H14.8004C15.2778 23.9002 15.7356 23.7106 16.0732 23.373C16.4107 23.0354 16.6004 22.5776 16.6004 22.1002Z" fill="#61A949"/>
  </symbol>
  <symbol id="SWAP" viewBox="0 0 24 24">
    <path
        d="M7.32357 17.9999L4.50007 14.7999M4.50007 14.7999L7.32357 11.5999M4.50007 14.7999H12.5"
        stroke="currentColor"
        strokeWidth="1.5"
        strokeLinecap="round"
        strokeLinejoin="round"
      />
    <path
      d="M16.6764 12.4L19.4999 9.20003M19.4999 9.20003L16.6764 6.00004M19.4999 9.20003H11.5"
      stroke="currentColor"
      strokeWidth="1.5"
      strokeLinecap="round"
      strokeLinejoin="round"
    />
  </symbol>
  <symbol id="URGENT" viewBox="9 9 24 24">
    <!-- NOTE: Default Notifi urgent icon -->
    <!-- <path
      fill-rule="evenodd"
      clip-rule="evenodd"
      d="M12 18C15.3137 18 18 15.3137 18 12C18 8.68629 15.3137 6 12 6C8.68629 6 6 8.68629 6 12C6 15.3137 8.68629 18 12 18ZM11.25 9.25C11.25 8.83579 11.5858 8.5 12 8.5C12.4142 8.5 12.75 8.83579 12.75 9.25V13.25C12.75 13.6642 12.4142 14 12 14C11.5858 14 11.25 13.6642 11.25 13.25V9.25ZM11.25 15.25C11.25 14.8358 11.5858 14.5 12 14.5C12.4142 14.5 12.75 14.8358 12.75 15.25C12.75 15.6642 12.4142 16 12 16C11.5858 16 11.25 15.6642 11.25 15.25Z"
      fill="currentColor"
    /> -->
    <!--NOTE:  Lightbulb red -->
    <path d="M12.8004 27.2001V21.8001C12.8004 19.8905 13.559 18.0592 14.9092 16.7089C16.2595 15.3587 18.0908 14.6001 20.0004 14.6001C21.9099 14.6001 23.7413 15.3587 25.0916 16.7089C26.4418 18.0592 27.2004 19.8905 27.2004 21.8001V27.2001H28.1004V29.0001H11.9004V27.2001H12.8004ZM14.6004 27.2001H25.4004V21.8001C25.4004 20.3679 24.8315 18.9944 23.8188 17.9817C22.8061 16.969 21.4326 16.4001 20.0004 16.4001C18.5682 16.4001 17.1947 16.969 16.182 17.9817C15.1693 18.9944 14.6004 20.3679 14.6004 21.8001V27.2001Z" fill="currentColor"/>
    <path d="M20.9003 11H19.1003V13.7H20.9003V11Z" fill="#F5237C"/>
    <path d="M28.2731 14.7998L27.0005 13.5272L25.0916 15.4361L26.3651 16.7087L28.2731 14.7998Z" fill="#F5237C"/>
    <path d="M13.0001 13.5272L11.7275 14.7998L13.6373 16.7096L14.909 15.4352L13.0001 13.5272Z" fill="#F5237C"/>
    <path d="M16.8184 18.618C15.9744 19.4619 15.5003 20.6065 15.5003 21.8H17.3003C17.3003 21.0839 17.5848 20.3972 18.0912 19.8908C18.5975 19.3845 19.2843 19.1 20.0003 19.1V17.3C18.8069 17.3 17.6623 17.7741 16.8184 18.618Z" fill="#F5237C"/>
    
  </symbol>
  <symbol id="WATCH" viewBox="0 0 24 24">
    <path
        d="M11.9998 7C8.6665 7 5.81984 9.07333 4.6665 12C5.81984 14.9267 8.6665 17 11.9998 17C15.3332 17 18.1798 14.9267 19.3332 12C18.1798 9.07333 15.3332 7 11.9998 7ZM11.9998 15.3333C10.1598 15.3333 8.6665 13.84 8.6665 12C8.6665 10.16 10.1598 8.66667 11.9998 8.66667C13.8398 8.66667 15.3332 10.16 15.3332 12C15.3332 13.84 13.8398 15.3333 11.9998 15.3333ZM11.9998 10C10.8932 10 9.99984 10.8933 9.99984 12C9.99984 13.1067 10.8932 14 11.9998 14C13.1065 14 13.9998 13.1067 13.9998 12C13.9998 10.8933 13.1065 10 11.9998 10Z"
        fill="currentColor"
      />
  </symbol>
  <symbol id="left-arrow" viewBox="0 0 24 24">
    <g clip-path="url(#clip0_1725_2096)">
      <path d="M20 11H7.83L13.42 5.41L12 4L4 12L12 20L13.41 18.59L7.83 13H20V11Z" fill="currentColor"/>
    </g>
    <defs>
      <clipPath id="clip0_1725_2096">
        <rect width="24" height="24" fill="white"/>
      </clipPath>
    </defs>
  </symbol>
  <symbol id="right-arrow" viewBox="0 0 13 13" fill="none">
    <path d="M1.14739 6.4246L9.83957 6.43066" stroke="currentColor" stroke-width="1.8" stroke-miterlimit="10"/>
    <path d="M5.5 0.92627L11 6.42627L5.5 11.9263" stroke="currentColor" stroke-width="1.8" stroke-miterlimit="10"/>
  </symbol>
  <symbol
    id="email-icon"
    viewBox="0 0 15 12"
  >
    <path d="M13.5 0H1.5C0.675 0 0.00749999 0.675 0.00749999 1.5L0 10.5C0 11.325 0.675 12 1.5 12H13.5C14.325 12 15 11.325 15 10.5V1.5C15 0.675 14.325 0 13.5 0ZM13.5 3L7.5 6.75L1.5 3V1.5L7.5 5.25L13.5 1.5V3Z" fill="currentColor"/>
  </symbol>
  <symbol
    id="slack-icon"
    viewBox="0 0 16 16"
  >
    <path d="M3.94125 9.84688C3.941 10.1377 3.85454 10.4219 3.6928 10.6636C3.53105 10.9052 3.30129 11.0935 3.03254 11.2047C2.7638 11.3158 2.46815 11.3447 2.18295 11.2878C1.89776 11.231 1.63584 11.0908 1.4303 10.8851C1.22475 10.6794 1.08481 10.4173 1.02817 10.1321C0.971524 9.84683 1.00072 9.5512 1.11206 9.28255C1.22341 9.0139 1.4119 8.7843 1.65372 8.62276C1.89554 8.46122 2.17982 8.375 2.47063 8.375H3.94125V9.84688Z" fill="currentColor"/>
    <path d="M4.68253 9.84709C4.68253 9.45706 4.83747 9.083 5.11326 8.8072C5.38906 8.5314 5.76312 8.37646 6.15315 8.37646C6.54318 8.37646 6.91724 8.5314 7.19304 8.8072C7.46884 9.083 7.62378 9.45706 7.62378 9.84709V13.5296C7.62378 13.9196 7.46884 14.2937 7.19304 14.5695C6.91724 14.8453 6.54318 15.0002 6.15315 15.0002C5.76312 15.0002 5.38906 14.8453 5.11326 14.5695C4.83747 14.2937 4.68253 13.9196 4.68253 13.5296V9.84709Z" fill="currentColor"/>
    <path d="M6.15315 3.94125C5.86234 3.941 5.57814 3.85454 5.33646 3.6928C5.09478 3.53105 4.90648 3.30129 4.79536 3.03254C4.68425 2.7638 4.6553 2.46815 4.71219 2.18295C4.76907 1.89776 4.90924 1.63584 5.11496 1.4303C5.32068 1.22475 5.58272 1.08481 5.86796 1.02817C6.1532 0.971524 6.44883 1.00072 6.71747 1.11206C6.98612 1.22341 7.21573 1.4119 7.37727 1.65372C7.53881 1.89554 7.62503 2.17982 7.62503 2.47063V3.94125H6.15315Z" fill="currentColor"/>
    <path d="M6.15312 4.68262C6.54316 4.68262 6.91722 4.83756 7.19301 5.11335C7.46881 5.38915 7.62375 5.76321 7.62375 6.15324C7.62375 6.54328 7.46881 6.91734 7.19301 7.19313C6.91722 7.46893 6.54316 7.62387 6.15312 7.62387H2.47062C2.08059 7.62387 1.70653 7.46893 1.43074 7.19313C1.15494 6.91734 1 6.54328 1 6.15324C1 5.76321 1.15494 5.38915 1.43074 5.11335C1.70653 4.83756 2.08059 4.68262 2.47062 4.68262H6.15312Z" fill="currentColor"/>
    <path d="M12.0588 6.15297C12.059 5.86216 12.1455 5.57795 12.3072 5.33628C12.469 5.0946 12.6987 4.9063 12.9675 4.79518C13.2362 4.68406 13.5319 4.65512 13.8171 4.712C14.1023 4.76889 14.3642 4.90905 14.5697 5.11477C14.7753 5.32049 14.9152 5.58254 14.9719 5.86777C15.0285 6.15301 14.9993 6.44864 14.888 6.71729C14.7766 6.98594 14.5881 7.21555 14.3463 7.37709C14.1045 7.53863 13.8202 7.62484 13.5294 7.62484H12.0588V6.15297Z" fill="currentColor"/>
    <path d="M11.3175 6.15312C11.3175 6.54316 11.1626 6.91722 10.8868 7.19301C10.611 7.46881 10.2369 7.62375 9.84688 7.62375C9.45684 7.62375 9.08278 7.46881 8.80699 7.19301C8.53119 6.91722 8.37625 6.54316 8.37625 6.15312V2.47062C8.37625 2.08059 8.53119 1.70653 8.80699 1.43074C9.08278 1.15494 9.45684 1 9.84688 1C10.2369 1 10.611 1.15494 10.8868 1.43074C11.1626 1.70653 11.3175 2.08059 11.3175 2.47062V6.15312Z" fill="currentColor"/>
    <path d="M9.84688 12.0586C10.1377 12.0588 10.4219 12.1453 10.6636 12.307C10.9052 12.4688 11.0935 12.6986 11.2047 12.9673C11.3158 13.236 11.3447 13.5317 11.2878 13.8169C11.231 14.1021 11.0908 14.364 10.8851 14.5695C10.6794 14.7751 10.4173 14.915 10.1321 14.9717C9.84683 15.0283 9.5512 14.9991 9.28255 14.8878C9.0139 14.7764 8.7843 14.5879 8.62276 14.3461C8.46122 14.1043 8.375 13.82 8.375 13.5292V12.0586H9.84688Z" fill="currentColor"/>
    <path d="M9.84688 11.3177C9.45684 11.3177 9.08278 11.1628 8.80699 10.887C8.53119 10.6112 8.37625 10.2371 8.37625 9.84709C8.37625 9.45706 8.53119 9.083 8.80699 8.8072C9.08278 8.5314 9.45684 8.37646 9.84688 8.37646H13.5294C13.9194 8.37646 14.2935 8.5314 14.5693 8.8072C14.8451 9.083 15 9.45706 15 9.84709C15 10.2371 14.8451 10.6112 14.5693 10.887C14.2935 11.1628 13.9194 11.3177 13.5294 11.3177H9.84688Z" fill="currentColor"/>
  </symbol>
  <symbol
    id="telegram-icon"
    viewBox="0 0 16 14"
  >
    <path d="M14.9063 0.370541L0.416267 5.97773C0.407646 5.98105 0.399288 5.98502 0.391267 5.9896C0.273767 6.05617 -0.546233 6.55773 0.610017 7.00742L0.621892 7.01179L4.0722 8.12648C4.09853 8.13503 4.1264 8.13773 4.15388 8.13438C4.18135 8.13103 4.20776 8.12172 4.23127 8.1071L12.7891 2.76773C12.8101 2.75463 12.8334 2.74582 12.8578 2.74179C12.9769 2.7221 13.3197 2.68523 13.1028 2.96054C12.8575 3.27304 7.0122 8.51117 6.36345 9.0921C6.32604 9.12569 6.3029 9.17231 6.29877 9.22241L6.01564 12.5974C6.01561 12.6318 6.02358 12.6657 6.03893 12.6965C6.05428 12.7272 6.07659 12.754 6.10408 12.7746C6.14309 12.7992 6.18896 12.8106 6.23493 12.8071C6.28091 12.8036 6.32454 12.7854 6.35939 12.7552L8.40939 10.923C8.44178 10.8941 8.48309 10.8771 8.52646 10.8749C8.56983 10.8727 8.61266 10.8854 8.64783 10.9109L12.2244 13.5077L12.236 13.5155C12.3225 13.569 13.2575 14.113 13.5275 12.898L15.9963 1.15898C15.9997 1.12179 16.0331 0.713041 15.741 0.471478C15.4341 0.218978 14.9997 0.346478 14.9344 0.360228C14.9248 0.36291 14.9154 0.366358 14.9063 0.370541Z" fill="currentColor"/>
  </symbol>
  <symbol
    id="discord-icon"
    viewBox="0 0 18 13"
  >
    <path d="M14.4382 1.07763C13.3511 0.578841 12.1854 0.211357 10.9666 0.00088291C10.9444 -0.00317917 10.9222 0.00697219 10.9108 0.0272754C10.7609 0.293919 10.5948 0.641778 10.4785 0.915194C9.16759 0.718936 7.8634 0.718936 6.57937 0.915194C6.46305 0.635701 6.29096 0.293919 6.14037 0.0272754C6.12893 0.0076496 6.10676 -0.00250175 6.08456 0.00088291C4.86642 0.210684 3.70072 0.578169 2.61299 1.07763C2.60357 1.08169 2.5955 1.08846 2.59015 1.09725C0.379051 4.40058 -0.22666 7.62272 0.0704817 10.8049C0.0718262 10.8205 0.0805655 10.8354 0.0926665 10.8448C1.55148 11.9161 2.9646 12.5665 4.35147 12.9976C4.37366 13.0044 4.39718 12.9963 4.41131 12.978C4.73937 12.53 5.03181 12.0576 5.28255 11.5608C5.29735 11.5318 5.28322 11.4972 5.25298 11.4857C4.78912 11.3098 4.34743 11.0952 3.92256 10.8516C3.88895 10.832 3.88626 10.7839 3.91718 10.7609C4.00659 10.6939 4.09602 10.6242 4.18139 10.5538C4.19684 10.5409 4.21836 10.5382 4.23652 10.5464C7.02776 11.8207 10.0496 11.8207 12.8079 10.5464C12.8261 10.5376 12.8476 10.5403 12.8637 10.5531C12.9491 10.6235 13.0385 10.6939 13.1286 10.7609C13.1595 10.7839 13.1575 10.832 13.1239 10.8516C12.699 11.1 12.2573 11.3098 11.7928 11.4851C11.7625 11.4966 11.7491 11.5318 11.7639 11.5608C12.02 12.0569 12.3124 12.5293 12.6345 12.9773C12.6479 12.9963 12.6721 13.0044 12.6943 12.9976C14.0879 12.5665 15.501 11.9161 16.9598 10.8448C16.9726 10.8354 16.9807 10.8211 16.982 10.8056C17.3376 7.12662 16.3864 3.93091 14.4603 1.09793C14.4556 1.08846 14.4476 1.08169 14.4382 1.07763ZM5.69938 8.86728C4.85902 8.86728 4.1666 8.09578 4.1666 7.14829C4.1666 6.2008 4.8456 5.42929 5.69938 5.42929C6.55986 5.42929 7.24558 6.20757 7.23213 7.14829C7.23213 8.09578 6.55313 8.86728 5.69938 8.86728ZM11.3666 8.86728C10.5262 8.86728 9.83381 8.09578 9.83381 7.14829C9.83381 6.2008 10.5128 5.42929 11.3666 5.42929C12.2271 5.42929 12.9128 6.20757 12.8993 7.14829C12.8993 8.09578 12.2271 8.86728 11.3666 8.86728Z" fill="currentColor"/>
  </symbol>  
  <symbol
    id="wallet-icon"
    viewBox="0 0 24 24"
  >
    <g clip-path="url(#clip0_5733_1741)">
      <path d="M3.9 12C3.9 10.29 5.29 8.9 7 8.9H11V7H7C4.24 7 2 9.24 2 12C2 14.76 4.24 17 7 17H11V15.1H7C5.29 15.1 3.9 13.71 3.9 12ZM8 13H16V11H8V13ZM17 7H13V8.9H17C18.71 8.9 20.1 10.29 20.1 12C20.1 13.71 18.71 15.1 17 15.1H13V17H17C19.76 17 22 14.76 22 12C22 9.24 19.76 7 17 7Z" fill="#5ECBCC"/>
    </g>
    <defs>
      <clipPath id="clip0_5733_1741">
        <rect width="24" height="24" fill="white"/>
      </clipPath>
    </defs>
  </symbol>  
  <symbol id="check" viewBox="0 0 11 11">
    <circle cx="5.45455" cy="5.45455" r="5.45455" fill="currentColor"/>
    <path d="M7.87876 4.24219L4.84846 7.27249L3.03027 6.06037" stroke="white" stroke-width="1.21212" stroke-linecap="round"/>
  </symbol>
  <symbol
    id="edit-icon"
    viewBox="0 0 20 20"
  >
    <path d="M4.75 15.2501H5.8105L12.796 8.26456L11.7355 7.20406L4.75 14.1896V15.2501ZM16.75 16.7501H3.25V13.5678L13.3263 3.49156C13.4669 3.35096 13.6576 3.27197 13.8565 3.27197C14.0554 3.27197 14.2461 3.35096 14.3868 3.49156L16.5085 5.61331C16.6491 5.75396 16.7281 5.94469 16.7281 6.14356C16.7281 6.34244 16.6491 6.53317 16.5085 6.67381L7.93225 15.2501H16.75V16.7501ZM12.796 6.14356L13.8565 7.20406L14.917 6.14356L13.8565 5.08306L12.796 6.14356Z" fill="currentColor"/> 
  </symbol> 
  <symbol     
    id="close-icon"
    viewBox="0 0 24 24">
    <g clip-path="url(#clip0_2137_15544)">
    <path d="M19 6.41L17.59 5L12 10.59L6.41 5L5 6.41L10.59 12L5 17.59L6.41 19L12 13.41L17.59 19L19 17.59L13.41 12L19 6.41Z" fill="currentColor"/>
    </g>
    <defs>
    <clipPath id="clip0_2137_15544">
    <rect width="24" height="24" fill="white"/>
    </clipPath>
    </defs>
  </symbol> 

  <symbol id="info" viewBox="0 0 24 24">
      <path
        d="M11.3335 8.66671H12.6668V10H11.3335V8.66671ZM11.3335 11.3334H12.6668V15.3334H11.3335V11.3334ZM12.0002 5.33337C8.32016 5.33337 5.3335 8.32004 5.3335 12C5.3335 15.68 8.32016 18.6667 12.0002 18.6667C15.6802 18.6667 18.6668 15.68 18.6668 12C18.6668 8.32004 15.6802 5.33337 12.0002 5.33337ZM12.0002 17.3334C9.06016 17.3334 6.66683 14.94 6.66683 12C6.66683 9.06004 9.06016 6.66671 12.0002 6.66671C14.9402 6.66671 17.3335 9.06004 17.3335 12C17.3335 14.94 14.9402 17.3334 12.0002 17.3334Z"
        fill="currentColor"
      />
  </symbol>

  <symbol id="btn-nav" viewBox="0 0 24 24">
    <path fill-rule="evenodd" clip-rule="evenodd" d="M0 1C0 0.447715 0.447715 0 1 0H17C17.5523 0 18 0.447715 18 1C18 1.55228 17.5523 2 17 2H1C0.447715 2 0 1.55228 0 1ZM0 8C0 7.44772 0.447715 7 1 7H17C17.5523 7 18 7.44772 18 8C18 8.55229 17.5523 9 17 9H1C0.447715 9 0 8.55229 0 8ZM1 14C0.447715 14 0 14.4477 0 15C0 15.5523 0.447715 16 1 16H17C17.5523 16 18 15.5523 18 15C18 14.4477 17.5523 14 17 14H1Z" fill="currentColor"/>
  </symbol>
  <symbol id="leave" viewBox="0 0 19 19" fill="none">
    <g clip-path="url(#clip0_2757_1911)">
      <path d="M13.458 5.54167L12.3418 6.65792L14.3843 8.70833H6.33301V10.2917H14.3843L12.3418 12.3342L13.458 13.4583L17.4163 9.5L13.458 5.54167ZM3.16634 3.95833H9.49967V2.375H3.16634C2.29551 2.375 1.58301 3.0875 1.58301 3.95833V15.0417C1.58301 15.9125 2.29551 16.625 3.16634 16.625H9.49967V15.0417H3.16634V3.95833Z" fill="#666D80"/>
    </g>
    <defs>
      <clipPath id="clip0_2757_1911">
        <rect width="19" height="19" fill="white"/>
      </clipPath>
    </defs>
  </symbol>

  <symbol id="copy-btn" viewBox="0 0 24 24">
    <g clip-path="url(#clip0_3022_2169)">
    <path d="M15.0455 4.5H6.86364C6.11364 4.5 5.5 5.11364 5.5 5.86364V15.5H7V6H15.0455V4.5ZM17.0909 7.22727H9.59091C8.84091 7.22727 8.22727 7.84091 8.22727 8.59091V18.1364C8.22727 18.8864 8.84091 19.5 9.59091 19.5H17.0909C17.8409 19.5 18.4545 18.8864 18.4545 18.1364V8.59091C18.4545 7.84091 17.8409 7.22727 17.0909 7.22727ZM16.4531 17.5H10V9H16.5L16.4531 17.5Z" fill="currentColor"/>
    </g>
    <defs>
    <clipPath id="clip0_3022_2169">
    <rect width="24" height="24" fill="currentColor"/>
    </clipPath>
    </defs>
  </symbol>

  <symbol id='trash-btn' width="24" height="24" viewBox="0 0 24 24" fill="none" xmlns="http://www.w3.org/2000/svg">
    <g clip-path="url(#clip0_5611_1341)">
    <path d="M7.5 17.4444C7.5 18.3 8.175 19 9 19H15C15.825 19 16.5 18.3 16.5 17.4444V8.11111H7.5V17.4444ZM17.25 5.77778H14.625L13.875 5H10.125L9.375 5.77778H6.75V7.33333H17.25V5.77778Z" fill="#868FA6"/>
    </g>
    <defs>
    <clipPath id="clip0_5611_1341">
    <rect width="24" height="24" fill="currentColor"/>
    </clipPath>
    </defs>
  </symbol>
</svg>
