
<svg
  xmlns="http://www.w3.org/2000/svg"  fill="none"
>
  <symbol
    id="warning"
    viewBox="0 0 24 24"
  >
    <path fill-rule="evenodd" 
      clip-rule="evenodd" 
      d="M11.5 22.75C17.7132 22.75 22.75 17.7132 22.75 11.5C22.75 5.2868 17.7132 0.25 11.5 0.25C5.2868 0.25 0.25 5.2868 0.25 11.5C0.25 17.7132 5.2868 22.75 11.5 22.75ZM10.0938 6.34375C10.0938 5.5671 10.7233 4.9375 11.5 4.9375C12.2767 4.9375 12.9062 5.5671 12.9062 6.34375V13.8438C12.9062 14.6204 12.2767 15.25 11.5 15.25C10.7233 15.25 10.0938 14.6204 10.0938 13.8438V6.34375ZM10.0938 17.5938C10.0938 16.8171 10.7233 16.1875 11.5 16.1875C12.2767 16.1875 12.9062 16.8171 12.9062 17.5938C12.9062 18.3704 12.2767 19 11.5 19C10.7233 19 10.0938 18.3704 10.0938 17.5938Z" 
      fill="currentColor"
    />
  </symbol>
  <symbol id="bell" viewBox="0 0 24 24">
    <path fill-rule="evenodd" 
      clip-rule="evenodd" 
      d="M3.91368 6.36978C3.91368 3.28467 6.41466 0.783691 9.49977 0.783691C12.5849 0.783691 15.0859 3.28467 15.0859 6.36978V8.63366C15.1377 9.14203 15.2804 9.63795 15.5079 10.0976L16.8598 12.8279C17.3291 13.7757 16.6395 14.8866 15.5819 14.8866H3.41802C2.36042 14.8866 1.67084 13.7757 2.14011 12.8279L3.46968 10.1425C3.75607 9.56412 3.90779 8.92854 3.91368 8.28347V6.36978ZM9.49796 18.9996C8.04712 18.9996 6.84685 18.0796 6.6472 16.8827H12.3487C12.1491 18.0796 10.9488 18.9996 9.49796 18.9996ZM6.61803 16.5299L6.61808 16.516V16.5438L6.61803 16.5299Z" 
      fill="currentColor"
    />
  </symbol>
  <symbol id="destinations" viewBox="0 0 24 24">
    <path d="M9.95925 18.5719L18.9367 0.982996L0.00664781 6.6058L3.87046 11.2648L14.948 4.30053L6.08215 13.9239L9.95925 18.5719Z" 
      fill="currentColor"
    />
  </symbol>
  <symbol id="config" viewBox="0 0 24 24">
    <g clip-path="url(#clip0_1809_95)">
      <path d="M3 17V19H9V17H3ZM3 5V7H13V5H3ZM13 21V19H21V17H13V15H11V21H13ZM7 9V11H3V13H7V15H9V9H7ZM21 13V11H11V13H21ZM15 9H17V7H21V5H17V3H15V9Z" 
        fill="currentColor"
      />
    </g>
    <defs>
      <clipPath id="clip0_1809_95">
        <rect width="24" height="24" fill="white"/>
      </clipPath>
    </defs>
  </symbol>
  <symbol id="user-protrait" viewBox="0 0 10 10">
    <g>
      <ellipse cx="4.82199" 
        cy="1.64681" 
        rx="1.6257" 
        ry="1.64681" 
        fill="currentColor"
      />
      <path 
        d="M9.15769 8.23428C9.15769 10.6596 7.21676 9.88109 4.8225 9.88109C2.42824 9.88109 0.487305 10.6596 0.487305 8.23428C0.487305 5.80892 2.42824 3.84277 4.8225 3.84277C7.21676 3.84277 9.15769 5.80892 9.15769 8.23428Z" 
        fill="currentColor"
      />
    </g>
  </symbol>
  <symbol id="UP_ARROW" viewBox="0 0 24 24">
    <path
      d="M8 10.5293L12 6.99995M12 6.99995L16 10.5293M12 6.99995V16.9999"
      stroke="currentColor"
      strokeWidth="1.5"
      strokeLinecap="round"
      strokeLinejoin="round"
    />
  </symbol>
  <symbol id="DOWN_ARROW" viewBox="0 0 24 24">
    <path
      d="M8 13.4707L12 17M12 17L16 13.4707M12 17V7"
      stroke="currentColor"
      strokeWidth="1.5"
      strokeLinecap="round"
      strokeLinejoin="round"
    />
  </symbol>
  <symbol id="PERCENT" viewBox="0 0 24 24">
    <circle cx="8" cy="9" r="1.75" stroke="currentColor" strokeWidth="1.5" />
      <circle
        cx="16"
        cy="14"
        r="1.75"
        stroke="currentColor"
        strokeWidth="1.5"
      />
      <line
        x1="9.22548"
        y1="16.4982"
        x2="14.8394"
        y2="6.77452"
        stroke="currentColor"
        strokeWidth="1.5"
        strokeLinecap="round"
      />
  </symbol>
  <symbol id="CLOCK" viewBox="0 0 24 24">
    <path
        fillRule="evenodd"
        clipRule="evenodd"
        d="M12 18C15.3137 18 18 15.3137 18 12C18 8.68629 15.3137 6 12 6C8.68629 6 6 8.68629 6 12C6 15.3137 8.68629 18 12 18ZM12.75 8C12.75 7.58579 12.4142 7.25 12 7.25C11.5858 7.25 11.25 7.58579 11.25 8V12.5V12.8107L11.4697 13.0303L13.9697 15.5303C14.2626 15.8232 14.7374 15.8232 15.0303 15.5303C15.3232 15.2374 15.3232 14.7626 15.0303 14.4697L12.75 12.1893V8Z"
        fill="currentColor"
      />
  </symbol>
  <symbol id="CHECKMARK" viewBox="0 0 24 24">
    <path
        d="M6 12.5L9.84 16L18 8"
        stroke="currentColor"
        strokeWidth="1.5"
        strokeLinecap="round"
      />
  </symbol>
  <symbol id="STAR" viewBox="0 0 24 24">
    <path
        d="M12 5L13.5716 9.83688H18.6574L14.5429 12.8262L16.1145 17.6631L12 14.6738L7.8855 17.6631L9.4571 12.8262L5.3426 9.83688H10.4284L12 5Z"
        fill="currentColor"
      />
  </symbol>
  <symbol id="MEGAPHONE" viewBox="0 0 24 24">
    <path
        d="M16.7498 10.7917V12.2084H19.5832V10.7917H16.7498ZM15.3332 15.4738C16.0132 15.9767 16.8986 16.6425 17.5998 17.1667C17.8832 16.7913 18.1665 16.4088 18.4498 16.0334C17.7486 15.5092 16.8632 14.8434 16.1832 14.3334C15.8998 14.7159 15.6165 15.0984 15.3332 15.4738ZM18.4498 6.96671C18.1665 6.59129 17.8832 6.20879 17.5998 5.83337C16.8986 6.35754 16.0132 7.02337 15.3332 7.53337C15.6165 7.90879 15.8998 8.29129 16.1832 8.66671C16.8632 8.15671 17.7486 7.49796 18.4498 6.96671ZM6.83317 9.37504C6.054 9.37504 5.4165 10.0125 5.4165 10.7917V12.2084C5.4165 12.9875 6.054 13.625 6.83317 13.625H7.5415V16.4584H8.95817V13.625H9.6665L13.2082 15.75V7.25004L9.6665 9.37504H6.83317ZM14.979 11.5C14.979 10.558 14.5682 9.70796 13.9165 9.12712V13.8659C14.5682 13.2921 14.979 12.4421 14.979 11.5Z"
        fill="currentColor"
      />
  </symbol>
  <symbol id="CHART" viewBox="0 0 24 24">
    <path
        d="M17.0556 5.5H6.94444C6.15 5.5 5.5 6.15 5.5 6.94444V17.0556C5.5 17.85 6.15 18.5 6.94444 18.5H17.0556C17.85 18.5 18.5 17.85 18.5 17.0556V6.94444C18.5 6.15 17.85 5.5 17.0556 5.5ZM9.83333 15.6111H8.38889V10.5556H9.83333V15.6111ZM12.7222 15.6111H11.2778V8.38889H12.7222V15.6111ZM15.6111 15.6111H14.1667V12.7222H15.6111V15.6111Z"
        fill="currentColor"
      />
  </symbol>
  <symbol id="DAO" viewBox="0 0 24 24">
    <path
        fillRule="evenodd"
        clipRule="evenodd"
        d="M17.0623 7.92265L12.0002 5L6.93799 7.92265L12.0002 10.8453L17.0623 7.92265ZM12.0002 12L5.93799 8.5V15.5L12.0002 19L18.0623 15.5V8.5L12.0002 12Z"
        fill="currentColor"
      />
  </symbol>
  <symbol id="FLAG" viewBox="0 0 24 24">
    <path
        d="M14.1882 7.52941L13.8824 6H7V19H8.52941V13.6471H12.8118L13.1176 15.1765H18.4706V7.52941H14.1882Z"
        fill="currentColor"
      />
  </symbol>
  <symbol id="GRAPH" viewBox="0 0 24 24">
    <path
        d="M7 16.5L10.5 11L13 14L17 8"
        stroke="currentColor"
        strokeWidth="1.5"
        strokeLinecap="round"
      />
  </symbol>
  <symbol id="INFO" viewBox="0 0 24 24">
    <path
        d="M11.3335 8.66671H12.6668V10H11.3335V8.66671ZM11.3335 11.3334H12.6668V15.3334H11.3335V11.3334ZM12.0002 5.33337C8.32016 5.33337 5.3335 8.32004 5.3335 12C5.3335 15.68 8.32016 18.6667 12.0002 18.6667C15.6802 18.6667 18.6668 15.68 18.6668 12C18.6668 8.32004 15.6802 5.33337 12.0002 5.33337ZM12.0002 17.3334C9.06016 17.3334 6.66683 14.94 6.66683 12C6.66683 9.06004 9.06016 6.66671 12.0002 6.66671C14.9402 6.66671 17.3335 9.06004 17.3335 12C17.3335 14.94 14.9402 17.3334 12.0002 17.3334Z"
        fill="currentColor"
      />
  </symbol>
  <symbol id="SWAP" viewBox="0 0 24 24">
    <path
        d="M7.32357 17.9999L4.50007 14.7999M4.50007 14.7999L7.32357 11.5999M4.50007 14.7999H12.5"
        stroke="currentColor"
        strokeWidth="1.5"
        strokeLinecap="round"
        strokeLinejoin="round"
      />
    <path
      d="M16.6764 12.4L19.4999 9.20003M19.4999 9.20003L16.6764 6.00004M19.4999 9.20003H11.5"
      stroke="currentColor"
      strokeWidth="1.5"
      strokeLinecap="round"
      strokeLinejoin="round"
    />
  </symbol>
  <symbol id="URGENT" viewBox="0 0 24 24">
    <path
        fill-rule="evenodd"
        clip-rule="evenodd"
        d="M12 18C15.3137 18 18 15.3137 18 12C18 8.68629 15.3137 6 12 6C8.68629 6 6 8.68629 6 12C6 15.3137 8.68629 18 12 18ZM11.25 9.25C11.25 8.83579 11.5858 8.5 12 8.5C12.4142 8.5 12.75 8.83579 12.75 9.25V13.25C12.75 13.6642 12.4142 14 12 14C11.5858 14 11.25 13.6642 11.25 13.25V9.25ZM11.25 15.25C11.25 14.8358 11.5858 14.5 12 14.5C12.4142 14.5 12.75 14.8358 12.75 15.25C12.75 15.6642 12.4142 16 12 16C11.5858 16 11.25 15.6642 11.25 15.25Z"
        fill="currentColor"
      />
  </symbol>
  <symbol id="WATCH" viewBox="0 0 24 24">
    <path
        d="M11.9998 7C8.6665 7 5.81984 9.07333 4.6665 12C5.81984 14.9267 8.6665 17 11.9998 17C15.3332 17 18.1798 14.9267 19.3332 12C18.1798 9.07333 15.3332 7 11.9998 7ZM11.9998 15.3333C10.1598 15.3333 8.6665 13.84 8.6665 12C8.6665 10.16 10.1598 8.66667 11.9998 8.66667C13.8398 8.66667 15.3332 10.16 15.3332 12C15.3332 13.84 13.8398 15.3333 11.9998 15.3333ZM11.9998 10C10.8932 10 9.99984 10.8933 9.99984 12C9.99984 13.1067 10.8932 14 11.9998 14C13.1065 14 13.9998 13.1067 13.9998 12C13.9998 10.8933 13.1065 10 11.9998 10Z"
        fill="currentColor"
      />
  </symbol>
  <symbol id="left-arrow" viewBox="0 0 24 24">
    <g clip-path="url(#clip0_1725_2096)">
      <path d="M20 11H7.83L13.42 5.41L12 4L4 12L12 20L13.41 18.59L7.83 13H20V11Z" fill="currentColor"/>
    </g>
    <defs>
      <clipPath id="clip0_1725_2096">
        <rect width="24" height="24" fill="white"/>
      </clipPath>
    </defs>
  </symbol>
  <symbol id="right-arrow" viewBox="0 0 13 13" fill="none">
    <path d="M1.14739 6.4246L9.83957 6.43066" stroke="currentColor" stroke-width="1.8" stroke-miterlimit="10"/>
    <path d="M5.5 0.92627L11 6.42627L5.5 11.9263" stroke="currentColor" stroke-width="1.8" stroke-miterlimit="10"/>
  </symbol>
  <symbol
    id="email-icon"
    viewBox="0 0 15 12"
  >
    <path d="M13.5 0H1.5C0.675 0 0.00749999 0.675 0.00749999 1.5L0 10.5C0 11.325 0.675 12 1.5 12H13.5C14.325 12 15 11.325 15 10.5V1.5C15 0.675 14.325 0 13.5 0ZM13.5 3L7.5 6.75L1.5 3V1.5L7.5 5.25L13.5 1.5V3Z" fill="currentColor"/>
  </symbol>
  <symbol
    id="slack-icon"
    viewBox="0 0 16 16"
  >
    <path d="M3.94125 9.84688C3.941 10.1377 3.85454 10.4219 3.6928 10.6636C3.53105 10.9052 3.30129 11.0935 3.03254 11.2047C2.7638 11.3158 2.46815 11.3447 2.18295 11.2878C1.89776 11.231 1.63584 11.0908 1.4303 10.8851C1.22475 10.6794 1.08481 10.4173 1.02817 10.1321C0.971524 9.84683 1.00072 9.5512 1.11206 9.28255C1.22341 9.0139 1.4119 8.7843 1.65372 8.62276C1.89554 8.46122 2.17982 8.375 2.47063 8.375H3.94125V9.84688Z" fill="currentColor"/>
    <path d="M4.68253 9.84709C4.68253 9.45706 4.83747 9.083 5.11326 8.8072C5.38906 8.5314 5.76312 8.37646 6.15315 8.37646C6.54318 8.37646 6.91724 8.5314 7.19304 8.8072C7.46884 9.083 7.62378 9.45706 7.62378 9.84709V13.5296C7.62378 13.9196 7.46884 14.2937 7.19304 14.5695C6.91724 14.8453 6.54318 15.0002 6.15315 15.0002C5.76312 15.0002 5.38906 14.8453 5.11326 14.5695C4.83747 14.2937 4.68253 13.9196 4.68253 13.5296V9.84709Z" fill="currentColor"/>
    <path d="M6.15315 3.94125C5.86234 3.941 5.57814 3.85454 5.33646 3.6928C5.09478 3.53105 4.90648 3.30129 4.79536 3.03254C4.68425 2.7638 4.6553 2.46815 4.71219 2.18295C4.76907 1.89776 4.90924 1.63584 5.11496 1.4303C5.32068 1.22475 5.58272 1.08481 5.86796 1.02817C6.1532 0.971524 6.44883 1.00072 6.71747 1.11206C6.98612 1.22341 7.21573 1.4119 7.37727 1.65372C7.53881 1.89554 7.62503 2.17982 7.62503 2.47063V3.94125H6.15315Z" fill="currentColor"/>
    <path d="M6.15312 4.68262C6.54316 4.68262 6.91722 4.83756 7.19301 5.11335C7.46881 5.38915 7.62375 5.76321 7.62375 6.15324C7.62375 6.54328 7.46881 6.91734 7.19301 7.19313C6.91722 7.46893 6.54316 7.62387 6.15312 7.62387H2.47062C2.08059 7.62387 1.70653 7.46893 1.43074 7.19313C1.15494 6.91734 1 6.54328 1 6.15324C1 5.76321 1.15494 5.38915 1.43074 5.11335C1.70653 4.83756 2.08059 4.68262 2.47062 4.68262H6.15312Z" fill="currentColor"/>
    <path d="M12.0588 6.15297C12.059 5.86216 12.1455 5.57795 12.3072 5.33628C12.469 5.0946 12.6987 4.9063 12.9675 4.79518C13.2362 4.68406 13.5319 4.65512 13.8171 4.712C14.1023 4.76889 14.3642 4.90905 14.5697 5.11477C14.7753 5.32049 14.9152 5.58254 14.9719 5.86777C15.0285 6.15301 14.9993 6.44864 14.888 6.71729C14.7766 6.98594 14.5881 7.21555 14.3463 7.37709C14.1045 7.53863 13.8202 7.62484 13.5294 7.62484H12.0588V6.15297Z" fill="currentColor"/>
    <path d="M11.3175 6.15312C11.3175 6.54316 11.1626 6.91722 10.8868 7.19301C10.611 7.46881 10.2369 7.62375 9.84688 7.62375C9.45684 7.62375 9.08278 7.46881 8.80699 7.19301C8.53119 6.91722 8.37625 6.54316 8.37625 6.15312V2.47062C8.37625 2.08059 8.53119 1.70653 8.80699 1.43074C9.08278 1.15494 9.45684 1 9.84688 1C10.2369 1 10.611 1.15494 10.8868 1.43074C11.1626 1.70653 11.3175 2.08059 11.3175 2.47062V6.15312Z" fill="currentColor"/>
    <path d="M9.84688 12.0586C10.1377 12.0588 10.4219 12.1453 10.6636 12.307C10.9052 12.4688 11.0935 12.6986 11.2047 12.9673C11.3158 13.236 11.3447 13.5317 11.2878 13.8169C11.231 14.1021 11.0908 14.364 10.8851 14.5695C10.6794 14.7751 10.4173 14.915 10.1321 14.9717C9.84683 15.0283 9.5512 14.9991 9.28255 14.8878C9.0139 14.7764 8.7843 14.5879 8.62276 14.3461C8.46122 14.1043 8.375 13.82 8.375 13.5292V12.0586H9.84688Z" fill="currentColor"/>
    <path d="M9.84688 11.3177C9.45684 11.3177 9.08278 11.1628 8.80699 10.887C8.53119 10.6112 8.37625 10.2371 8.37625 9.84709C8.37625 9.45706 8.53119 9.083 8.80699 8.8072C9.08278 8.5314 9.45684 8.37646 9.84688 8.37646H13.5294C13.9194 8.37646 14.2935 8.5314 14.5693 8.8072C14.8451 9.083 15 9.45706 15 9.84709C15 10.2371 14.8451 10.6112 14.5693 10.887C14.2935 11.1628 13.9194 11.3177 13.5294 11.3177H9.84688Z" fill="currentColor"/>
  </symbol>
  <symbol
    id="telegram-icon"
    viewBox="0 0 16 14"
  >
    <path d="M14.9063 0.370541L0.416267 5.97773C0.407646 5.98105 0.399288 5.98502 0.391267 5.9896C0.273767 6.05617 -0.546233 6.55773 0.610017 7.00742L0.621892 7.01179L4.0722 8.12648C4.09853 8.13503 4.1264 8.13773 4.15388 8.13438C4.18135 8.13103 4.20776 8.12172 4.23127 8.1071L12.7891 2.76773C12.8101 2.75463 12.8334 2.74582 12.8578 2.74179C12.9769 2.7221 13.3197 2.68523 13.1028 2.96054C12.8575 3.27304 7.0122 8.51117 6.36345 9.0921C6.32604 9.12569 6.3029 9.17231 6.29877 9.22241L6.01564 12.5974C6.01561 12.6318 6.02358 12.6657 6.03893 12.6965C6.05428 12.7272 6.07659 12.754 6.10408 12.7746C6.14309 12.7992 6.18896 12.8106 6.23493 12.8071C6.28091 12.8036 6.32454 12.7854 6.35939 12.7552L8.40939 10.923C8.44178 10.8941 8.48309 10.8771 8.52646 10.8749C8.56983 10.8727 8.61266 10.8854 8.64783 10.9109L12.2244 13.5077L12.236 13.5155C12.3225 13.569 13.2575 14.113 13.5275 12.898L15.9963 1.15898C15.9997 1.12179 16.0331 0.713041 15.741 0.471478C15.4341 0.218978 14.9997 0.346478 14.9344 0.360228C14.9248 0.36291 14.9154 0.366358 14.9063 0.370541Z" fill="currentColor"/>
  </symbol>
  <symbol
    id="discord-icon"
    viewBox="0 0 18 13"
  >
    <path d="M14.4382 1.07763C13.3511 0.578841 12.1854 0.211357 10.9666 0.00088291C10.9444 -0.00317917 10.9222 0.00697219 10.9108 0.0272754C10.7609 0.293919 10.5948 0.641778 10.4785 0.915194C9.16759 0.718936 7.8634 0.718936 6.57937 0.915194C6.46305 0.635701 6.29096 0.293919 6.14037 0.0272754C6.12893 0.0076496 6.10676 -0.00250175 6.08456 0.00088291C4.86642 0.210684 3.70072 0.578169 2.61299 1.07763C2.60357 1.08169 2.5955 1.08846 2.59015 1.09725C0.379051 4.40058 -0.22666 7.62272 0.0704817 10.8049C0.0718262 10.8205 0.0805655 10.8354 0.0926665 10.8448C1.55148 11.9161 2.9646 12.5665 4.35147 12.9976C4.37366 13.0044 4.39718 12.9963 4.41131 12.978C4.73937 12.53 5.03181 12.0576 5.28255 11.5608C5.29735 11.5318 5.28322 11.4972 5.25298 11.4857C4.78912 11.3098 4.34743 11.0952 3.92256 10.8516C3.88895 10.832 3.88626 10.7839 3.91718 10.7609C4.00659 10.6939 4.09602 10.6242 4.18139 10.5538C4.19684 10.5409 4.21836 10.5382 4.23652 10.5464C7.02776 11.8207 10.0496 11.8207 12.8079 10.5464C12.8261 10.5376 12.8476 10.5403 12.8637 10.5531C12.9491 10.6235 13.0385 10.6939 13.1286 10.7609C13.1595 10.7839 13.1575 10.832 13.1239 10.8516C12.699 11.1 12.2573 11.3098 11.7928 11.4851C11.7625 11.4966 11.7491 11.5318 11.7639 11.5608C12.02 12.0569 12.3124 12.5293 12.6345 12.9773C12.6479 12.9963 12.6721 13.0044 12.6943 12.9976C14.0879 12.5665 15.501 11.9161 16.9598 10.8448C16.9726 10.8354 16.9807 10.8211 16.982 10.8056C17.3376 7.12662 16.3864 3.93091 14.4603 1.09793C14.4556 1.08846 14.4476 1.08169 14.4382 1.07763ZM5.69938 8.86728C4.85902 8.86728 4.1666 8.09578 4.1666 7.14829C4.1666 6.2008 4.8456 5.42929 5.69938 5.42929C6.55986 5.42929 7.24558 6.20757 7.23213 7.14829C7.23213 8.09578 6.55313 8.86728 5.69938 8.86728ZM11.3666 8.86728C10.5262 8.86728 9.83381 8.09578 9.83381 7.14829C9.83381 6.2008 10.5128 5.42929 11.3666 5.42929C12.2271 5.42929 12.9128 6.20757 12.8993 7.14829C12.8993 8.09578 12.2271 8.86728 11.3666 8.86728Z" fill="currentColor"/>
  </symbol>  
  <symbol id="check" viewBox="0 0 11 11">
<circle cx="5.45455" cy="5.45455" r="5.45455" fill="currentColor"/>
<path d="M7.87876 4.24219L4.84846 7.27249L3.03027 6.06037" stroke="white" stroke-width="1.21212" stroke-linecap="round"/>
  </symbol>
</svg>

 
