
<svg
  xmlns="http://www.w3.org/2000/svg"  fill="none"
>
  <symbol
    id="warning"
    viewBox="0 0 24 24"
  >
    <path fill-rule="evenodd" 
      clip-rule="evenodd" 
      d="M11.5 22.75C17.7132 22.75 22.75 17.7132 22.75 11.5C22.75 5.2868 17.7132 0.25 11.5 0.25C5.2868 0.25 0.25 5.2868 0.25 11.5C0.25 17.7132 5.2868 22.75 11.5 22.75ZM10.0938 6.34375C10.0938 5.5671 10.7233 4.9375 11.5 4.9375C12.2767 4.9375 12.9062 5.5671 12.9062 6.34375V13.8438C12.9062 14.6204 12.2767 15.25 11.5 15.25C10.7233 15.25 10.0938 14.6204 10.0938 13.8438V6.34375ZM10.0938 17.5938C10.0938 16.8171 10.7233 16.1875 11.5 16.1875C12.2767 16.1875 12.9062 16.8171 12.9062 17.5938C12.9062 18.3704 12.2767 19 11.5 19C10.7233 19 10.0938 18.3704 10.0938 17.5938Z" 
      fill="currentColor"
    />
  </symbol>
  <symbol id="bell" viewBox="0 0 24 24">
    <path fill-rule="evenodd" 
      clip-rule="evenodd" 
      d="M3.91368 6.36978C3.91368 3.28467 6.41466 0.783691 9.49977 0.783691C12.5849 0.783691 15.0859 3.28467 15.0859 6.36978V8.63366C15.1377 9.14203 15.2804 9.63795 15.5079 10.0976L16.8598 12.8279C17.3291 13.7757 16.6395 14.8866 15.5819 14.8866H3.41802C2.36042 14.8866 1.67084 13.7757 2.14011 12.8279L3.46968 10.1425C3.75607 9.56412 3.90779 8.92854 3.91368 8.28347V6.36978ZM9.49796 18.9996C8.04712 18.9996 6.84685 18.0796 6.6472 16.8827H12.3487C12.1491 18.0796 10.9488 18.9996 9.49796 18.9996ZM6.61803 16.5299L6.61808 16.516V16.5438L6.61803 16.5299Z" 
      fill="currentColor"
    />
  </symbol>
  <symbol id="destinations" viewBox="0 0 24 24">
    <path d="M9.95925 18.5719L18.9367 0.982996L0.00664781 6.6058L3.87046 11.2648L14.948 4.30053L6.08215 13.9239L9.95925 18.5719Z" 
      fill="currentColor"
    />
  </symbol>
  <symbol id="config" viewBox="0 0 24 24">
    <g clip-path="url(#clip0_1809_95)">
      <path d="M3 17V19H9V17H3ZM3 5V7H13V5H3ZM13 21V19H21V17H13V15H11V21H13ZM7 9V11H3V13H7V15H9V9H7ZM21 13V11H11V13H21ZM15 9H17V7H21V5H17V3H15V9Z" 
        fill="currentColor"
      />
    </g>
    <defs>
      <clipPath id="clip0_1809_95">
        <rect width="24" height="24" fill="white"/>
      </clipPath>
    </defs>
  </symbol>
  <symbol id="user-protrait" viewBox="0 0 10 10">
    <g>
      <ellipse cx="4.82199" 
        cy="1.64681" 
        rx="1.6257" 
        ry="1.64681" 
        fill="currentColor"
      />
      <path 
        d="M9.15769 8.23428C9.15769 10.6596 7.21676 9.88109 4.8225 9.88109C2.42824 9.88109 0.487305 10.6596 0.487305 8.23428C0.487305 5.80892 2.42824 3.84277 4.8225 3.84277C7.21676 3.84277 9.15769 5.80892 9.15769 8.23428Z" 
        fill="currentColor"
      />
    </g>
  </symbol>
  <symbol id="UP_ARROW" viewBox="0 0 24 24">
    <path
      d="M8 10.5293L12 6.99995M12 6.99995L16 10.5293M12 6.99995V16.9999"
      stroke="currentColor"
      strokeWidth="1.5"
      strokeLinecap="round"
      strokeLinejoin="round"
    />
  </symbol>
  <symbol id="DOWN_ARROW" viewBox="0 0 24 24">
    <path
      d="M8 13.4707L12 17M12 17L16 13.4707M12 17V7"
      stroke="currentColor"
      strokeWidth="1.5"
      strokeLinecap="round"
      strokeLinejoin="round"
    />
  </symbol>
  <symbol id="PERCENT" viewBox="0 0 24 24">
    <circle cx="8" cy="9" r="1.75" stroke="currentColor" strokeWidth="1.5" />
      <circle
        cx="16"
        cy="14"
        r="1.75"
        stroke="currentColor"
        strokeWidth="1.5"
      />
      <line
        x1="9.22548"
        y1="16.4982"
        x2="14.8394"
        y2="6.77452"
        stroke="currentColor"
        strokeWidth="1.5"
        strokeLinecap="round"
      />
  </symbol>
  <symbol id="CLOCK" viewBox="0 0 24 24">
    <path
        fillRule="evenodd"
        clipRule="evenodd"
        d="M12 18C15.3137 18 18 15.3137 18 12C18 8.68629 15.3137 6 12 6C8.68629 6 6 8.68629 6 12C6 15.3137 8.68629 18 12 18ZM12.75 8C12.75 7.58579 12.4142 7.25 12 7.25C11.5858 7.25 11.25 7.58579 11.25 8V12.5V12.8107L11.4697 13.0303L13.9697 15.5303C14.2626 15.8232 14.7374 15.8232 15.0303 15.5303C15.3232 15.2374 15.3232 14.7626 15.0303 14.4697L12.75 12.1893V8Z"
        fill="currentColor"
      />
  </symbol>
  <symbol id="CHECKMARK" viewBox="0 0 24 24">
    <path
        d="M6 12.5L9.84 16L18 8"
        stroke="currentColor"
        strokeWidth="1.5"
        strokeLinecap="round"
      />
  </symbol>
  <symbol id="STAR" viewBox="0 0 24 24">
    <path
        d="M12 5L13.5716 9.83688H18.6574L14.5429 12.8262L16.1145 17.6631L12 14.6738L7.8855 17.6631L9.4571 12.8262L5.3426 9.83688H10.4284L12 5Z"
        fill="currentColor"
      />
  </symbol>
  <symbol id="MEGAPHONE" viewBox="0 0 24 24">
    <path
        d="M16.7498 10.7917V12.2084H19.5832V10.7917H16.7498ZM15.3332 15.4738C16.0132 15.9767 16.8986 16.6425 17.5998 17.1667C17.8832 16.7913 18.1665 16.4088 18.4498 16.0334C17.7486 15.5092 16.8632 14.8434 16.1832 14.3334C15.8998 14.7159 15.6165 15.0984 15.3332 15.4738ZM18.4498 6.96671C18.1665 6.59129 17.8832 6.20879 17.5998 5.83337C16.8986 6.35754 16.0132 7.02337 15.3332 7.53337C15.6165 7.90879 15.8998 8.29129 16.1832 8.66671C16.8632 8.15671 17.7486 7.49796 18.4498 6.96671ZM6.83317 9.37504C6.054 9.37504 5.4165 10.0125 5.4165 10.7917V12.2084C5.4165 12.9875 6.054 13.625 6.83317 13.625H7.5415V16.4584H8.95817V13.625H9.6665L13.2082 15.75V7.25004L9.6665 9.37504H6.83317ZM14.979 11.5C14.979 10.558 14.5682 9.70796 13.9165 9.12712V13.8659C14.5682 13.2921 14.979 12.4421 14.979 11.5Z"
        fill="currentColor"
      />
  </symbol>
  <symbol id="CHART" viewBox="0 0 24 24">
    <path
        d="M17.0556 5.5H6.94444C6.15 5.5 5.5 6.15 5.5 6.94444V17.0556C5.5 17.85 6.15 18.5 6.94444 18.5H17.0556C17.85 18.5 18.5 17.85 18.5 17.0556V6.94444C18.5 6.15 17.85 5.5 17.0556 5.5ZM9.83333 15.6111H8.38889V10.5556H9.83333V15.6111ZM12.7222 15.6111H11.2778V8.38889H12.7222V15.6111ZM15.6111 15.6111H14.1667V12.7222H15.6111V15.6111Z"
        fill="currentColor"
      />
  </symbol>
  <symbol id="DAO" viewBox="0 0 24 24">
    <path
        fillRule="evenodd"
        clipRule="evenodd"
        d="M17.0623 7.92265L12.0002 5L6.93799 7.92265L12.0002 10.8453L17.0623 7.92265ZM12.0002 12L5.93799 8.5V15.5L12.0002 19L18.0623 15.5V8.5L12.0002 12Z"
        fill="currentColor"
      />
  </symbol>
  <symbol id="FLAG" viewBox="0 0 24 24">
    <path
        d="M14.1882 7.52941L13.8824 6H7V19H8.52941V13.6471H12.8118L13.1176 15.1765H18.4706V7.52941H14.1882Z"
        fill="currentColor"
      />
  </symbol>
  <symbol id="GRAPH" viewBox="0 0 24 24">
    <path
        d="M7 16.5L10.5 11L13 14L17 8"
        stroke="currentColor"
        strokeWidth="1.5"
        strokeLinecap="round"
      />
  </symbol>
  <symbol id="INFO" viewBox="0 0 24 24">
    <path
        d="M11.3335 8.66671H12.6668V10H11.3335V8.66671ZM11.3335 11.3334H12.6668V15.3334H11.3335V11.3334ZM12.0002 5.33337C8.32016 5.33337 5.3335 8.32004 5.3335 12C5.3335 15.68 8.32016 18.6667 12.0002 18.6667C15.6802 18.6667 18.6668 15.68 18.6668 12C18.6668 8.32004 15.6802 5.33337 12.0002 5.33337ZM12.0002 17.3334C9.06016 17.3334 6.66683 14.94 6.66683 12C6.66683 9.06004 9.06016 6.66671 12.0002 6.66671C14.9402 6.66671 17.3335 9.06004 17.3335 12C17.3335 14.94 14.9402 17.3334 12.0002 17.3334Z"
        fill="currentColor"
      />
  </symbol>
  <symbol id="SWAP" viewBox="0 0 24 24">
    <path
        d="M7.32357 17.9999L4.50007 14.7999M4.50007 14.7999L7.32357 11.5999M4.50007 14.7999H12.5"
        stroke="currentColor"
        strokeWidth="1.5"
        strokeLinecap="round"
        strokeLinejoin="round"
      />
    <path
      d="M16.6764 12.4L19.4999 9.20003M19.4999 9.20003L16.6764 6.00004M19.4999 9.20003H11.5"
      stroke="currentColor"
      strokeWidth="1.5"
      strokeLinecap="round"
      strokeLinejoin="round"
    />
  </symbol>
  <symbol id="URGENT" viewBox="0 0 24 24">
    <path
        fill-rule="evenodd"
        clip-rule="evenodd"
        d="M12 18C15.3137 18 18 15.3137 18 12C18 8.68629 15.3137 6 12 6C8.68629 6 6 8.68629 6 12C6 15.3137 8.68629 18 12 18ZM11.25 9.25C11.25 8.83579 11.5858 8.5 12 8.5C12.4142 8.5 12.75 8.83579 12.75 9.25V13.25C12.75 13.6642 12.4142 14 12 14C11.5858 14 11.25 13.6642 11.25 13.25V9.25ZM11.25 15.25C11.25 14.8358 11.5858 14.5 12 14.5C12.4142 14.5 12.75 14.8358 12.75 15.25C12.75 15.6642 12.4142 16 12 16C11.5858 16 11.25 15.6642 11.25 15.25Z"
        fill="currentColor"
      />
  </symbol>
  <symbol id="WATCH" viewBox="0 0 24 24">
    <path
        d="M11.9998 7C8.6665 7 5.81984 9.07333 4.6665 12C5.81984 14.9267 8.6665 17 11.9998 17C15.3332 17 18.1798 14.9267 19.3332 12C18.1798 9.07333 15.3332 7 11.9998 7ZM11.9998 15.3333C10.1598 15.3333 8.6665 13.84 8.6665 12C8.6665 10.16 10.1598 8.66667 11.9998 8.66667C13.8398 8.66667 15.3332 10.16 15.3332 12C15.3332 13.84 13.8398 15.3333 11.9998 15.3333ZM11.9998 10C10.8932 10 9.99984 10.8933 9.99984 12C9.99984 13.1067 10.8932 14 11.9998 14C13.1065 14 13.9998 13.1067 13.9998 12C13.9998 10.8933 13.1065 10 11.9998 10Z"
        fill="currentColor"
      />
  </symbol>
  <symbol id="left-arrow" viewBox="0 0 24 24">
    <g clip-path="url(#clip0_1725_2096)">
      <path d="M20 11H7.83L13.42 5.41L12 4L4 12L12 20L13.41 18.59L7.83 13H20V11Z" fill="#80829D"/>
    </g>
    <defs>
      <clipPath id="clip0_1725_2096">
        <rect width="24" height="24" fill="white"/>
      </clipPath>
    </defs>
  </symbol>
  
</svg>