<svg width="14" height="11" viewBox="0 0 14 11" fill="none" xmlns="http://www.w3.org/2000/svg">
<path d="M11.8516 0.884574C10.9593 0.475143 10.0024 0.173493 9.00194 0.000724739C8.98372 -0.00260963 8.96552 0.00572314 8.95614 0.0223891C8.83307 0.241264 8.69676 0.526805 8.6013 0.751239C7.52524 0.590141 6.45469 0.590141 5.40069 0.751239C5.30521 0.521817 5.16395 0.241264 5.04034 0.0223891C5.03095 0.00627919 5.01275 -0.00205357 4.99453 0.000724739C3.99461 0.172941 3.03774 0.474591 2.14488 0.884574C2.13715 0.887907 2.13052 0.893467 2.12613 0.900684C0.311145 3.61223 -0.186054 6.25712 0.0578551 8.86923C0.0589587 8.88201 0.0661324 8.89423 0.0760655 8.902C1.27354 9.7814 2.4335 10.3153 3.57191 10.6691C3.59013 10.6747 3.60944 10.668 3.62103 10.653C3.89032 10.2853 4.13037 9.89752 4.33619 9.48974C4.34834 9.46587 4.33675 9.43753 4.31192 9.42808C3.93116 9.28365 3.5686 9.10754 3.21984 8.90756C3.19226 8.89145 3.19005 8.85199 3.21543 8.8331C3.28882 8.77811 3.36223 8.72089 3.43231 8.66311C3.44499 8.65256 3.46265 8.65034 3.47756 8.657C5.76875 9.70308 8.24923 9.70308 10.5134 8.657C10.5283 8.64978 10.546 8.65201 10.5592 8.66256C10.6293 8.72034 10.7027 8.77811 10.7766 8.8331C10.802 8.85199 10.8004 8.89145 10.7728 8.90756C10.424 9.11143 10.0614 9.28365 9.68013 9.42753C9.65531 9.43698 9.64427 9.46587 9.65641 9.48974C9.86665 9.89695 10.1067 10.2847 10.371 10.6525C10.3821 10.668 10.4019 10.6747 10.4201 10.6691C11.5641 10.3153 12.724 9.7814 13.9215 8.902C13.932 8.89423 13.9386 8.88256 13.9397 8.86978C14.2316 5.8499 13.4508 3.2267 11.8698 0.901236C11.8659 0.893467 11.8593 0.887907 11.8516 0.884574ZM4.67835 7.27873C3.98854 7.27873 3.42016 6.64544 3.42016 5.86769C3.42016 5.08994 3.97752 4.45664 4.67835 4.45664C5.38468 4.45664 5.94756 5.0955 5.93651 5.86769C5.93651 6.64544 5.37916 7.27873 4.67835 7.27873ZM9.33027 7.27873C8.64048 7.27873 8.0721 6.64544 8.0721 5.86769C8.0721 5.08994 8.62944 4.45664 9.33027 4.45664C10.0366 4.45664 10.5995 5.0955 10.5885 5.86769C10.5885 6.64544 10.0366 7.27873 9.33027 7.27873Z" fill="#F5F6FB"/>
</svg>
