<svg width="44" height="44" viewBox="0 0 44 44" fill="none" xmlns="http://www.w3.org/2000/svg">
<circle cx="22" cy="22" r="22" fill="white"/>
<path fill-rule="evenodd" clip-rule="evenodd" d="M14.9437 18.0457C14.9437 14.1487 18.1028 10.9896 21.9998 10.9896C25.8968 10.9896 29.0559 14.1488 29.0559 18.0457V20.9069C29.1216 21.5485 29.3017 22.1743 29.5889 22.7544L31.2965 26.2032C31.8893 27.4004 31.0182 28.8037 29.6823 28.8037H22.0334L21.9998 28.8038L21.9662 28.8037H14.3174C12.9815 28.8037 12.1105 27.4004 12.7032 26.2032L14.3827 22.8112C14.7479 22.0736 14.9397 21.2624 14.9437 20.4395V18.0457ZM21.9974 33.9996C20.1647 33.9996 18.6486 32.8374 18.3964 31.3257H25.5983C25.3461 32.8374 23.83 33.9996 21.9974 33.9996ZM18.3595 30.88L18.3596 30.8643V30.8956L18.3595 30.88Z" fill="#B6B8D5"/>
</svg>
