<svg width="18" height="13" viewBox="0 0 18 13" fill="none" xmlns="http://www.w3.org/2000/svg">
<path d="M14.4382 1.07763C13.3511 0.578841 12.1854 0.211357 10.9666 0.00088291C10.9444 -0.00317917 10.9222 0.00697219 10.9108 0.0272754C10.7609 0.293919 10.5948 0.641778 10.4785 0.915194C9.16759 0.718936 7.8634 0.718936 6.57937 0.915194C6.46305 0.635701 6.29096 0.293919 6.14037 0.0272754C6.12893 0.0076496 6.10676 -0.00250175 6.08456 0.00088291C4.86642 0.210684 3.70072 0.578169 2.61299 1.07763C2.60357 1.08169 2.5955 1.08846 2.59015 1.09725C0.379051 4.40058 -0.22666 7.62272 0.0704817 10.8049C0.0718262 10.8205 0.0805655 10.8354 0.0926665 10.8448C1.55148 11.9161 2.9646 12.5665 4.35147 12.9976C4.37366 13.0044 4.39718 12.9963 4.41131 12.978C4.73937 12.53 5.03181 12.0576 5.28255 11.5608C5.29735 11.5318 5.28322 11.4972 5.25298 11.4857C4.78912 11.3098 4.34743 11.0952 3.92256 10.8516C3.88895 10.832 3.88626 10.7839 3.91718 10.7609C4.00659 10.6939 4.09602 10.6242 4.18139 10.5538C4.19684 10.5409 4.21836 10.5382 4.23652 10.5464C7.02776 11.8207 10.0496 11.8207 12.8079 10.5464C12.8261 10.5376 12.8476 10.5403 12.8637 10.5531C12.9491 10.6235 13.0385 10.6939 13.1286 10.7609C13.1595 10.7839 13.1575 10.832 13.1239 10.8516C12.699 11.1 12.2573 11.3098 11.7928 11.4851C11.7625 11.4966 11.7491 11.5318 11.7639 11.5608C12.02 12.0569 12.3124 12.5293 12.6345 12.9773C12.6479 12.9963 12.6721 13.0044 12.6943 12.9976C14.0879 12.5665 15.501 11.9161 16.9598 10.8448C16.9726 10.8354 16.9807 10.8211 16.982 10.8056C17.3376 7.12662 16.3864 3.93091 14.4603 1.09793C14.4556 1.08846 14.4476 1.08169 14.4382 1.07763ZM5.69938 8.86728C4.85902 8.86728 4.1666 8.09578 4.1666 7.14829C4.1666 6.2008 4.8456 5.42929 5.69938 5.42929C6.55986 5.42929 7.24558 6.20757 7.23213 7.14829C7.23213 8.09578 6.55313 8.86728 5.69938 8.86728ZM11.3666 8.86728C10.5262 8.86728 9.83381 8.09578 9.83381 7.14829C9.83381 6.2008 10.5128 5.42929 11.3666 5.42929C12.2271 5.42929 12.9128 6.20757 12.8993 7.14829C12.8993 8.09578 12.2271 8.86728 11.3666 8.86728Z" fill="#00CBFD"/>
</svg>
