<svg xmlns="http://www.w3.org/2000/svg" width="38" height="38" viewBox="0 0 38 38" fill="none">
  <path fill-rule="evenodd" clip-rule="evenodd" d="M30.2853 22.0478C29.2529 22.3496 28.1631 22.5112 27.0365 22.5112C20.4981 22.5112 15.1977 17.0698 15.1977 10.3574C15.1977 9.15965 15.3665 8.00233 15.681 6.90918H3.41397C1.52849 6.90918 0 8.47833 0 10.414V34.4953C0 36.4309 1.52849 38.0001 3.41398 38.0001H26.8713C28.7568 38.0001 30.2853 36.4309 30.2853 34.4953V22.0478Z" fill="#262949"/>
  <path d="M37.0151 8.63637C37.0151 13.4061 33.2487 17.2727 28.6026 17.2727C23.9564 17.2727 20.19 13.4061 20.19 8.63637C20.19 3.86663 23.9564 0 28.6026 0C33.2487 0 37.0151 3.86663 37.0151 8.63637Z" fill="url(#paint0_linear_1758_544)"/>
  <defs>
    <linearGradient id="paint0_linear_1758_544" x1="33.6829" y1="1.34593" x2="25.2592" y2="17.0914" gradientUnits="userSpaceOnUse">
      <stop stop-color="#FE7970"/>
      <stop offset="1" stop-color="#FEB776"/>
    </linearGradient>
  </defs>
</svg>