<svg width="16" height="16" viewBox="0 0 16 16" fill="none" xmlns="http://www.w3.org/2000/svg">
<path d="M3.94125 9.84688C3.941 10.1377 3.85454 10.4219 3.6928 10.6636C3.53105 10.9052 3.30129 11.0935 3.03254 11.2047C2.7638 11.3158 2.46815 11.3447 2.18295 11.2878C1.89776 11.231 1.63584 11.0908 1.4303 10.8851C1.22475 10.6794 1.08481 10.4173 1.02817 10.1321C0.971524 9.84683 1.00072 9.5512 1.11206 9.28255C1.22341 9.0139 1.4119 8.7843 1.65372 8.62276C1.89554 8.46122 2.17982 8.375 2.47063 8.375H3.94125V9.84688Z" fill="#00CBFD"/>
<path d="M4.68253 9.84709C4.68253 9.45706 4.83747 9.083 5.11326 8.8072C5.38906 8.5314 5.76312 8.37646 6.15315 8.37646C6.54318 8.37646 6.91724 8.5314 7.19304 8.8072C7.46884 9.083 7.62378 9.45706 7.62378 9.84709V13.5296C7.62378 13.9196 7.46884 14.2937 7.19304 14.5695C6.91724 14.8453 6.54318 15.0002 6.15315 15.0002C5.76312 15.0002 5.38906 14.8453 5.11326 14.5695C4.83747 14.2937 4.68253 13.9196 4.68253 13.5296V9.84709Z" fill="#00CBFD"/>
<path d="M6.15315 3.94125C5.86234 3.941 5.57814 3.85454 5.33646 3.6928C5.09478 3.53105 4.90648 3.30129 4.79536 3.03254C4.68425 2.7638 4.6553 2.46815 4.71219 2.18295C4.76907 1.89776 4.90924 1.63584 5.11496 1.4303C5.32068 1.22475 5.58272 1.08481 5.86796 1.02817C6.1532 0.971524 6.44883 1.00072 6.71747 1.11206C6.98612 1.22341 7.21573 1.4119 7.37727 1.65372C7.53881 1.89554 7.62503 2.17982 7.62503 2.47063V3.94125H6.15315Z" fill="#00CBFD"/>
<path d="M6.15312 4.68262C6.54316 4.68262 6.91722 4.83756 7.19301 5.11335C7.46881 5.38915 7.62375 5.76321 7.62375 6.15324C7.62375 6.54328 7.46881 6.91734 7.19301 7.19313C6.91722 7.46893 6.54316 7.62387 6.15312 7.62387H2.47062C2.08059 7.62387 1.70653 7.46893 1.43074 7.19313C1.15494 6.91734 1 6.54328 1 6.15324C1 5.76321 1.15494 5.38915 1.43074 5.11335C1.70653 4.83756 2.08059 4.68262 2.47062 4.68262H6.15312Z" fill="#00CBFD"/>
<path d="M12.0588 6.15297C12.059 5.86216 12.1455 5.57795 12.3072 5.33628C12.469 5.0946 12.6987 4.9063 12.9675 4.79518C13.2362 4.68406 13.5319 4.65512 13.8171 4.712C14.1023 4.76889 14.3642 4.90905 14.5697 5.11477C14.7753 5.32049 14.9152 5.58254 14.9719 5.86777C15.0285 6.15301 14.9993 6.44864 14.888 6.71729C14.7766 6.98594 14.5881 7.21555 14.3463 7.37709C14.1045 7.53863 13.8202 7.62484 13.5294 7.62484H12.0588V6.15297Z" fill="#00CBFD"/>
<path d="M11.3175 6.15312C11.3175 6.54316 11.1626 6.91722 10.8868 7.19301C10.611 7.46881 10.2369 7.62375 9.84688 7.62375C9.45684 7.62375 9.08278 7.46881 8.80699 7.19301C8.53119 6.91722 8.37625 6.54316 8.37625 6.15312V2.47062C8.37625 2.08059 8.53119 1.70653 8.80699 1.43074C9.08278 1.15494 9.45684 1 9.84688 1C10.2369 1 10.611 1.15494 10.8868 1.43074C11.1626 1.70653 11.3175 2.08059 11.3175 2.47062V6.15312Z" fill="#00CBFD"/>
<path d="M9.84688 12.0586C10.1377 12.0588 10.4219 12.1453 10.6636 12.307C10.9052 12.4688 11.0935 12.6986 11.2047 12.9673C11.3158 13.236 11.3447 13.5317 11.2878 13.8169C11.231 14.1021 11.0908 14.364 10.8851 14.5695C10.6794 14.7751 10.4173 14.915 10.1321 14.9717C9.84683 15.0283 9.5512 14.9991 9.28255 14.8878C9.0139 14.7764 8.7843 14.5879 8.62276 14.3461C8.46122 14.1043 8.375 13.82 8.375 13.5292V12.0586H9.84688Z" fill="#00CBFD"/>
<path d="M9.84688 11.3177C9.45684 11.3177 9.08278 11.1628 8.80699 10.887C8.53119 10.6112 8.37625 10.2371 8.37625 9.84709C8.37625 9.45706 8.53119 9.083 8.80699 8.8072C9.08278 8.5314 9.45684 8.37646 9.84688 8.37646H13.5294C13.9194 8.37646 14.2935 8.5314 14.5693 8.8072C14.8451 9.083 15 9.45706 15 9.84709C15 10.2371 14.8451 10.6112 14.5693 10.887C14.2935 11.1628 13.9194 11.3177 13.5294 11.3177H9.84688Z" fill="#00CBFD"/>
</svg>
