<svg width="16" height="14" viewBox="0 0 16 14" fill="none" xmlns="http://www.w3.org/2000/svg">
<path d="M14.9063 0.370541L0.416267 5.97773C0.407646 5.98105 0.399288 5.98502 0.391267 5.9896C0.273767 6.05617 -0.546233 6.55773 0.610017 7.00742L0.621892 7.01179L4.0722 8.12648C4.09853 8.13503 4.1264 8.13773 4.15388 8.13438C4.18135 8.13103 4.20776 8.12172 4.23127 8.1071L12.7891 2.76773C12.8101 2.75463 12.8334 2.74582 12.8578 2.74179C12.9769 2.7221 13.3197 2.68523 13.1028 2.96054C12.8575 3.27304 7.0122 8.51117 6.36345 9.0921C6.32604 9.12569 6.3029 9.17231 6.29877 9.22241L6.01564 12.5974C6.01561 12.6318 6.02358 12.6657 6.03893 12.6965C6.05428 12.7272 6.07659 12.754 6.10408 12.7746C6.14309 12.7992 6.18896 12.8106 6.23493 12.8071C6.28091 12.8036 6.32454 12.7854 6.35939 12.7552L8.40939 10.923C8.44178 10.8941 8.48309 10.8771 8.52646 10.8749C8.56983 10.8727 8.61266 10.8854 8.64783 10.9109L12.2244 13.5077L12.236 13.5155C12.3225 13.569 13.2575 14.113 13.5275 12.898L15.9963 1.15898C15.9997 1.12179 16.0331 0.713041 15.741 0.471478C15.4341 0.218978 14.9997 0.346478 14.9344 0.360228C14.9248 0.36291 14.9154 0.366358 14.9063 0.370541Z" fill="#00CBFD"/>
</svg>
